<svg width="14" height="24" viewBox="0 0 14 24" fill="none" xmlns="http://www.w3.org/2000/svg">
<path d="M9.24551 23.5038C9.11314 23.5085 9.02843 23.5178 8.94371 23.5178C7.13285 23.5178 5.32729 23.5132 3.51643 23.5225C3.26228 23.5225 3.19344 23.4618 3.19344 23.2377C3.19874 19.5219 3.19874 15.8015 3.19874 12.0857C3.19874 11.9877 3.19874 11.8896 3.19874 11.7636C2.21389 11.7636 1.25551 11.7636 0.28125 11.7636C0.28125 10.4378 0.28125 9.13545 0.28125 7.79571C0.381853 7.79571 0.477161 7.79571 0.567174 7.79571C1.36141 7.79571 2.15564 7.79105 2.94988 7.80038C3.15109 7.80038 3.20403 7.74903 3.20403 7.57631C3.19344 6.53533 3.19344 5.48968 3.20403 4.4487C3.20933 3.72048 3.3417 3.01093 3.72293 2.35273C4.26831 1.42378 5.13138 0.821595 6.22213 0.448148C7.11167 0.140054 8.04887 0.0280202 8.99136 0.0140159C10.5269 -0.00465641 12.0624 0.00467976 13.5979 1.16703e-05C13.7409 1.16703e-05 13.8574 -0.00465642 13.8574 0.172731C13.8521 1.45645 13.8521 2.74018 13.8521 4.0239C13.8521 4.03791 13.8468 4.05191 13.8256 4.11259C13.7356 4.11259 13.635 4.11259 13.5344 4.11259C12.5813 4.11259 11.6282 4.10793 10.6751 4.11259C10.1245 4.11259 9.6797 4.30865 9.39907 4.73345C9.31435 4.85949 9.2614 5.02287 9.2614 5.17225C9.24552 5.96583 9.2614 6.7594 9.25081 7.55297C9.25081 7.7397 9.31435 7.79105 9.52085 7.79105C10.8446 7.78171 12.1683 7.78638 13.492 7.78638C13.5979 7.78638 13.6985 7.78638 13.8786 7.78638C13.6932 9.12145 13.5132 10.4285 13.3279 11.7496C11.9512 11.7496 10.6116 11.7496 9.24551 11.7496C9.24551 15.6754 9.24551 19.578 9.24551 23.5038Z" fill="white"/>
</svg>
