<svg width="22" height="22" viewBox="0 0 22 22" fill="none" xmlns="http://www.w3.org/2000/svg">
<path d="M13.8951 12.7016C13.8951 12.7016 13.8952 12.7016 13.8952 12.7017L21.4741 20.7238C21.93 21.2063 21.5879 22 20.9242 22C20.7161 22 20.5171 21.9143 20.3742 21.763L14.5954 15.6463C13.7455 14.7467 12.2907 14.8272 11.5452 15.8152L7.47835 21.2047C7.10041 21.7055 6.50932 22 5.88186 22H3.86626C2.21547 22 1.27544 20.113 2.26978 18.7953L8.04593 11.1406C8.63383 10.3615 8.57351 9.27185 7.90322 8.5624L1.05734 1.3166C0.601492 0.834126 0.943537 0.0403881 1.6073 0.0403881C1.81542 0.0403881 2.01435 0.126118 2.15727 0.277401L8.36342 6.84646C9.21338 7.74612 10.6682 7.66562 11.4137 6.67767L15.8221 0.835688C16.2 0.334841 16.7911 0.0403881 17.4185 0.0403881H19.4341C21.0849 0.0403881 22.025 1.92737 21.0306 3.24509L13.8949 12.7013C13.8948 12.7014 13.8949 12.7016 13.8951 12.7016ZM11.0439 9.68339C11.0439 9.68354 11.0438 9.68369 11.0437 9.68381L10.1104 10.8993L4.24996 18.5326C3.60957 19.3667 4.20423 20.573 5.25581 20.573C5.64994 20.573 6.02166 20.3897 6.26167 20.0771L11.8746 12.766L12.8081 11.5503L19.0326 3.44288C19.673 2.60878 19.0783 1.40251 18.0267 1.40251C17.6326 1.40251 17.2609 1.58575 17.0209 1.89836L11.044 9.68297C11.0439 9.68309 11.0439 9.68324 11.0439 9.68339Z" fill="white"/>
</svg>
