<svg width="87" height="89" viewBox="0 0 87 89" fill="none" xmlns="http://www.w3.org/2000/svg">
<ellipse cx="43.7178" cy="44.5" rx="41.7178" ry="42.5" fill="white" stroke="#FFEFCE" stroke-width="3" stroke-linejoin="round" stroke-dasharray="4 4"/>
<path d="M54.5201 39.8769C54.5093 36.7025 54.428 33.4341 54.3467 30.2707C54.2654 27.1128 54.1841 23.85 54.1733 20.6865C54.1733 20.5761 54.1299 20.4712 54.0541 20.3939C53.9782 20.3166 53.8752 20.278 53.7669 20.2725C50.3744 20.3001 46.9007 20.3221 43.5354 20.3442C40.1592 20.3663 36.6638 20.3884 33.2551 20.416C33.1467 20.416 33.0437 20.4602 32.9679 20.5375C32.892 20.6148 32.8487 20.7196 32.8541 20.8301C32.892 23.8334 32.9245 27.2232 32.9625 30.497C32.995 33.7709 33.0329 37.1607 33.0708 40.164C33.0708 40.2744 33.1142 40.3793 33.1955 40.4566C33.2714 40.5339 33.3743 40.5726 33.4773 40.5726H33.4827C36.9185 40.5284 40.3597 40.4787 43.8063 40.429C47.2475 40.3793 50.6942 40.3296 54.1245 40.2855C54.3413 40.291 54.5201 40.1088 54.5201 39.8769ZM43.7846 39.6119C40.4789 39.6561 37.1678 39.7058 33.8729 39.75C33.8404 36.8515 33.8024 33.6218 33.7699 30.497C33.7374 27.3723 33.7049 24.1426 33.667 21.2441C36.9456 21.222 40.2947 21.2 43.5354 21.1779C46.7598 21.1558 50.0926 21.1337 53.355 21.1116C53.3712 24.1536 53.4471 27.2784 53.5284 30.2983C53.6043 33.3182 53.6856 36.4375 53.7018 39.4739C50.4069 39.5181 47.0958 39.5623 43.7846 39.6119ZM43.5896 41.7761C43.5896 41.5498 43.4107 41.362 43.1885 41.3565C39.8557 41.3124 36.3603 41.2848 32.9841 41.2627C29.608 41.2406 26.118 41.213 22.7852 41.1688H22.7797C22.5575 41.1688 22.3787 41.351 22.3733 41.5774L22.0156 62.2418C22.0156 62.3523 22.0536 62.4627 22.1294 62.54C22.2053 62.6173 22.3083 62.6614 22.4166 62.6614C24.5898 62.6614 26.6599 62.678 28.6596 62.6945C30.5346 62.7111 32.3718 62.7221 34.2035 62.7221C37.2057 62.7221 40.1863 62.6835 43.2969 62.5455C43.5137 62.5344 43.6817 62.3578 43.6871 62.1369C43.7142 58.9404 43.6708 55.385 43.6329 51.9455C43.6058 48.5115 43.5625 44.9616 43.5896 41.7761ZM42.8905 61.7339C38.0457 61.9382 33.4935 61.8995 28.6758 61.8664C26.8008 61.8499 24.8661 61.8388 22.8393 61.8333L23.1808 42.0025C26.3944 42.0466 29.738 42.0687 32.9787 42.0908C36.2194 42.1129 39.5631 42.135 42.7712 42.1791C42.7496 45.2653 42.7929 48.6661 42.8309 51.9565C42.8688 55.2469 42.9121 58.6478 42.8905 61.7339ZM65.028 41.6326C61.3483 41.4945 54.0216 41.2792 46.2558 41.3896C46.0336 41.3952 45.8548 41.5774 45.8548 41.7982L45.676 61.745C45.676 61.8554 45.7193 61.9603 45.7952 62.0431C45.871 62.1204 45.9794 62.1645 46.0878 62.1645C48.9004 62.148 52.2007 62.2197 55.3926 62.2915C58.2377 62.3578 61.1695 62.424 63.7707 62.424C64.0959 62.424 64.4156 62.424 64.7245 62.4185C64.9467 62.4185 65.1255 62.2363 65.1255 62.0155C65.1906 58.8741 65.2285 55.396 65.2719 52.0283C65.3152 48.6661 65.3532 45.1935 65.4182 42.0521C65.4236 41.8258 65.2502 41.6381 65.028 41.6326ZM64.459 52.0173C64.421 55.2359 64.3777 58.5594 64.3235 61.5904C61.5976 61.6014 58.4545 61.5296 55.4143 61.4634C52.5692 61.3971 49.6374 61.3309 47.0416 61.3309C46.8573 61.3309 46.6785 61.3309 46.4997 61.3309L46.6731 42.2067C53.9999 42.1129 60.8877 42.3061 64.6053 42.4386C64.5403 45.4751 64.5023 48.7986 64.459 52.0173ZM52.3579 22.5746C52.3579 22.4642 52.3145 22.3593 52.2332 22.282C52.1573 22.2048 52.049 22.1661 51.9406 22.1661C49.1172 22.2434 46.2612 22.2931 43.4974 22.3483C40.7336 22.398 37.8777 22.4532 35.0489 22.5305C34.8267 22.536 34.6478 22.7237 34.6533 22.9556C34.7074 25.5559 34.7671 28.0844 34.8212 30.613C34.8754 33.1415 34.9351 35.6701 34.9892 38.2704C34.9947 38.4967 35.1735 38.6734 35.3957 38.6734C35.477 38.6734 35.5583 38.6734 35.645 38.6734C41.8988 38.6734 46.2396 38.574 52.1302 38.3035C52.347 38.2925 52.5204 38.1103 52.5204 37.8839C52.4988 35.1566 52.4662 32.6502 52.4391 30.2265C52.412 27.8084 52.3795 25.3019 52.3579 22.5746ZM35.7967 37.8453C35.7425 35.3885 35.6937 32.9869 35.6396 30.5909C35.5854 28.1949 35.5366 25.7988 35.4824 23.342C38.1757 23.2703 40.8908 23.2206 43.5191 23.1709C46.1474 23.1212 48.8625 23.0715 51.5504 22.9998C51.5721 25.5614 51.5992 27.9354 51.6263 30.2376C51.6534 32.5453 51.6805 34.9248 51.7021 37.4919C46.0661 37.7514 41.812 37.8453 35.7967 37.8453ZM41.2051 43.3219C36.4524 42.9631 30.3883 42.9079 24.5681 43.1674C24.3513 43.1784 24.1779 43.3606 24.1779 43.5814C24.1887 46.3529 24.205 49.2127 24.2158 52.0725C24.2267 54.8826 24.2429 57.6927 24.2538 60.4144C24.2538 60.6408 24.4326 60.823 24.6548 60.8285C28.5891 60.8727 31.7215 60.9113 34.74 60.9113C36.8697 60.9113 38.9344 60.8948 41.1834 60.8506C41.2918 60.8506 41.3948 60.8009 41.4706 60.7236C41.5465 60.6463 41.5844 60.5359 41.5844 60.4255C41.5194 57.4994 41.5519 54.7501 41.5844 52.089C41.617 49.4225 41.6495 46.662 41.5844 43.725C41.579 43.5152 41.4164 43.3385 41.2051 43.3219ZM40.7716 52.0835C40.739 54.6231 40.7119 57.251 40.7607 60.0335C35.6287 60.1218 31.3746 60.0832 25.0666 60.0059C25.0558 57.4111 25.045 54.739 25.0341 52.0725C25.0233 49.3507 25.0125 46.6289 24.9962 43.9789C30.5184 43.747 36.2194 43.7967 40.777 44.1225C40.8312 46.905 40.7987 49.5384 40.7716 52.0835ZM47.9683 43.747C47.8924 46.3529 47.8762 49.0581 47.8545 51.6694C47.8328 54.2808 47.8165 56.9805 47.7407 59.5753C47.7353 59.8016 47.9087 59.9893 48.1309 60.0004C51.4149 60.1439 53.8807 60.155 56.2651 60.1605C58.216 60.166 60.2266 60.177 62.6598 60.2543C62.6652 60.2543 62.6706 60.2543 62.6706 60.2543C62.779 60.2543 62.882 60.2102 62.9579 60.1329C63.0391 60.0556 63.0825 59.9452 63.0771 59.8292C63.0175 57.1516 63.0446 54.4851 63.0717 51.9124C63.0988 49.3286 63.1259 46.6565 63.0662 43.9679C63.0608 43.747 62.8874 43.5649 62.6652 43.5649C60.3404 43.5262 57.8909 43.4876 55.5173 43.4544C53.1436 43.4158 50.6942 43.3827 48.3693 43.344C48.158 43.3385 47.9737 43.5207 47.9683 43.747ZM48.6674 51.675C48.6836 49.2016 48.7053 46.6455 48.7703 44.1777C50.976 44.2108 53.2791 44.2494 55.5173 44.2826C57.7554 44.3157 60.0694 44.3543 62.275 44.3875C62.3238 46.9326 62.2967 49.4611 62.2696 51.9068C62.2425 54.3526 62.2154 56.8756 62.2642 59.4152C60.0098 59.3489 58.1131 59.3379 56.2705 59.3324C53.989 59.3213 51.6371 59.3158 48.5644 59.1888C48.6294 56.71 48.6457 54.1538 48.6674 51.675ZM47.0362 27.7366C46.5701 26.649 45.7843 25.175 44.3591 24.9596C43.6437 24.8492 42.858 25.1032 42.2077 25.6498C41.6224 26.1411 41.2159 26.7815 40.9016 27.3502C39.7256 29.437 38.9995 31.8441 38.799 34.323C38.7935 34.3671 38.7881 34.4168 38.7881 34.472C38.7285 35.1014 38.6255 36.2718 39.4764 36.6638C39.6498 36.7466 39.8286 36.7853 40.002 36.7853C40.1646 36.7853 40.3272 36.7521 40.4789 36.6804C41.1997 36.3546 41.6115 35.3388 41.7904 34.7646C41.9475 34.2678 42.1209 33.7102 42.5057 33.4286C42.8471 33.1802 43.3348 33.1581 43.8876 33.1526C44.7547 33.147 45.6109 33.2188 45.9903 33.7819C46.1203 33.9752 46.1908 34.2236 46.2666 34.4886C46.2992 34.6101 46.3371 34.737 46.3805 34.8585C46.5972 35.4989 46.982 35.913 47.4643 36.0234C48.2067 36.2001 48.895 35.5817 49.0738 34.8971C49.231 34.3009 49.0901 33.6991 48.9329 33.136C48.4181 31.2976 47.784 29.4812 47.0362 27.7366ZM48.2826 34.6818C48.2013 34.98 47.9087 35.2781 47.6431 35.2174C47.3668 35.1511 47.1988 34.7536 47.1446 34.5825C47.1066 34.4776 47.0795 34.3671 47.0416 34.2512C46.9495 33.9365 46.8573 33.6108 46.6568 33.3071C45.9794 32.3024 44.5596 32.3134 43.8768 32.3189C43.3403 32.3244 42.6033 32.33 42.0288 32.7551C41.4273 33.1967 41.1997 33.9255 41.0154 34.5107C40.7878 35.2284 40.4464 35.786 40.1483 35.9185C40.04 35.9682 39.937 35.9627 39.8124 35.9019C39.4872 35.7529 39.5576 34.9634 39.5956 34.5383C39.601 34.4831 39.6064 34.4334 39.6118 34.3837C39.8015 32.0263 40.4952 29.7352 41.6115 27.7587C41.8933 27.2618 42.2456 26.6932 42.7333 26.2902C43.1398 25.9479 43.6058 25.7657 44.0339 25.7657C44.1044 25.7657 44.1802 25.7712 44.2507 25.7823C44.7438 25.854 45.4917 26.1742 46.2992 28.0679C47.0308 29.7793 47.6594 31.5626 48.158 33.3624C48.2772 33.8316 48.3856 34.2843 48.2826 34.6818ZM44.733 28.5592C44.5325 28.3053 44.1423 27.9961 43.7034 27.963C43.4432 27.9464 43.2102 28.0292 43.026 28.2059C42.7008 28.5206 42.4732 29.1224 42.3431 29.9891C42.3215 30.1437 42.2564 30.6019 42.5599 30.9277C42.82 31.2037 43.1885 31.2092 43.3674 31.2148C43.4541 31.2148 43.5408 31.2203 43.6275 31.2203C43.8443 31.2203 44.0664 31.2148 44.2832 31.2037C44.4458 31.1927 44.7438 31.1761 44.9823 30.9774C45.2912 30.7179 45.3779 30.2928 45.2316 29.7186C45.134 29.3156 45.004 28.9015 44.733 28.5592ZM44.462 30.3314C44.4404 30.348 44.3645 30.3645 44.2344 30.3701C43.9526 30.3866 43.6654 30.3921 43.3836 30.3866C43.221 30.3811 43.1669 30.3645 43.1452 30.3535C43.1398 30.3425 43.1235 30.2817 43.1452 30.1051C43.2373 29.4646 43.3999 28.9788 43.5787 28.8021C43.5896 28.7911 43.6004 28.7801 43.6437 28.7856C43.7738 28.7966 43.9743 28.9236 44.0935 29.0727C44.2724 29.299 44.3645 29.6082 44.4404 29.9118C44.5271 30.2541 44.4675 30.3314 44.462 30.3314ZM37.52 50.4549C38.0565 49.1354 37.6067 47.4405 36.4958 46.5903C35.0976 45.5192 33.6561 45.5303 31.987 45.5413C31.6618 45.5413 31.3259 45.5468 30.9844 45.5413C30.0469 45.5248 29.3587 45.7511 28.936 46.2093C28.5404 46.64 28.4428 47.2196 28.3941 47.7828L27.7166 56.0585C27.6787 56.5443 27.6191 57.2786 28.0364 57.8362C28.4537 58.3938 29.1527 58.5263 29.776 58.587C30.5834 58.6643 31.4613 58.7472 32.3609 58.7472C32.7403 58.7472 33.125 58.7306 33.5098 58.6975C34.7074 58.5815 36.0623 58.3496 36.9185 57.0302C37.5525 56.0585 37.8777 54.59 37.1894 53.4913C36.7884 52.8509 36.4145 52.4589 35.9918 52.1663C36.6475 51.8406 37.1298 51.4044 37.52 50.4549ZM34.908 51.7191C34.7508 51.7743 34.6478 51.9234 34.637 52.089C34.6316 52.2546 34.7237 52.4148 34.8754 52.481C35.5583 52.8012 35.981 53.0993 36.5012 53.933C36.9944 54.7169 36.7071 55.8487 36.2411 56.5664C35.645 57.4829 34.7237 57.7424 33.4339 57.8693C32.22 57.9853 30.9628 57.8638 29.8518 57.7589C29.402 57.7148 28.9089 57.6319 28.6813 57.3283C28.4699 57.0467 28.4862 56.594 28.5241 56.1192L29.2015 47.849C29.2394 47.3742 29.3099 47.0099 29.5267 46.778C29.776 46.5075 30.2312 46.375 30.8869 46.375C30.914 46.375 30.9411 46.375 30.9682 46.375C31.3204 46.3805 31.6618 46.3805 31.9924 46.375C33.5748 46.3639 34.8267 46.3529 36.0081 47.2583C36.8209 47.8821 37.1624 49.174 36.7668 50.1402C36.3711 51.1063 35.943 51.3382 34.908 51.7191ZM34.1655 48.4287C33.8891 48.1582 33.5748 48.0257 33.3255 47.9374C32.3989 47.6116 31.6998 47.5454 31.1904 47.7441C30.7243 47.9263 30.7135 48.3845 30.7026 48.6551C30.7026 48.7048 30.6972 48.7489 30.6972 48.7986L30.6105 50.0739C30.5997 50.2119 30.5888 50.4273 30.6701 50.6315C30.7893 50.9352 31.0549 51.1118 31.4559 51.167C31.7594 51.2057 32.0629 51.2278 32.3718 51.2278C32.5343 51.2278 32.6969 51.2223 32.8595 51.2112C33.2172 51.1836 33.6399 51.1229 34.0084 50.8634C34.4365 50.5598 34.6912 50.0298 34.6695 49.5108C34.6478 49.1133 34.4636 48.7158 34.1655 48.4287ZM33.5423 50.1899C33.3364 50.3389 33.0654 50.372 32.7999 50.3941C32.388 50.4217 31.9707 50.4107 31.5589 50.3555C31.4722 50.3444 31.4342 50.3279 31.418 50.3224C31.4126 50.2837 31.418 50.1899 31.418 50.1402L31.5047 48.8649C31.5101 48.8041 31.5101 48.7434 31.5101 48.6882C31.5101 48.633 31.5155 48.5557 31.5209 48.506C31.7215 48.4453 32.1712 48.4066 33.0546 48.7213C33.3093 48.8096 33.4719 48.9035 33.5965 49.025C33.7428 49.1685 33.8349 49.3673 33.8458 49.555C33.8675 49.831 33.7049 50.0684 33.5423 50.1899ZM33.5802 53.5686C32.8812 53.0883 31.9924 52.8951 31.2554 53.0607C30.41 53.2539 30.345 54.0489 30.307 54.4795C30.3016 54.5568 30.2854 54.6507 30.2745 54.7556C30.2203 55.142 30.1499 55.6168 30.3287 55.9978C30.5834 56.5443 31.2446 56.594 31.4938 56.6161C31.7106 56.6327 31.9436 56.6492 32.1875 56.6492C32.556 56.6492 32.9408 56.6106 33.3093 56.456C33.9433 56.1965 34.5394 55.4954 34.3986 54.7004C34.3173 54.2753 34.0355 53.8833 33.5802 53.5686ZM33.0058 55.6886C32.5723 55.8653 32.0303 55.8266 31.5535 55.788C31.1579 55.7549 31.0766 55.6776 31.0603 55.6444C30.9899 55.4899 31.0441 55.1255 31.0766 54.877C31.0928 54.7666 31.1091 54.6562 31.1145 54.5568C31.1579 54.0213 31.2337 53.9164 31.4288 53.8722C31.9491 53.7563 32.6102 53.9054 33.125 54.2587C33.2768 54.3636 33.5423 54.5789 33.5911 54.8494C33.6561 55.1917 33.3364 55.5506 33.0058 55.6886ZM59.2836 55.7769C59.8039 55.1531 60.0586 54.4961 60.0261 53.8612C59.9827 53.011 59.3378 52.2823 58.59 52.2326C58.0914 52.1994 57.5766 52.4424 57.1051 52.9337C56.9859 53.0552 56.8775 53.1821 56.7745 53.3091C56.5957 53.5244 56.4223 53.7232 56.2272 53.8722C55.7503 54.2366 55.0783 54.2974 54.5418 54.0324C53.6693 53.5962 53.5067 52.7129 53.4905 52.2215C53.4471 51.2057 53.9348 50.1788 54.6719 49.7371C55.5498 49.2016 56.7528 49.3065 57.5278 49.9856C57.6253 50.0684 57.7229 50.1623 57.8259 50.2671C58.2594 50.6867 58.7959 51.2112 59.5221 51.0842C60.1182 50.9793 60.5897 50.4162 60.6438 49.7371C60.6872 49.2458 60.53 48.7268 60.1832 48.2024C59.1536 46.6455 57.0184 45.8781 54.9862 46.3363C53.8969 46.5792 52.8889 47.1479 52.0652 47.9705C51.2307 48.8096 50.6725 49.831 50.4503 50.9352C49.9842 53.2429 51.0735 55.7383 53.0407 56.859C53.7885 57.2841 54.6339 57.4884 55.4739 57.4884C56.9154 57.4939 58.3515 56.8921 59.2836 55.7769ZM56.2163 56.5995C55.2355 56.7652 54.2492 56.5995 53.4417 56.1413C52.6397 55.6831 51.9731 54.9157 51.5721 53.9882C51.171 53.0662 51.0572 52.0393 51.2469 51.1063C51.6317 49.2071 53.2412 47.5785 55.1596 47.1479C55.4956 47.0706 55.837 47.0375 56.173 47.0375C57.5386 47.0375 58.823 47.6448 59.5004 48.6716C59.6684 48.9256 59.8581 49.301 59.8255 49.6709C59.7984 49.9635 59.5979 50.234 59.3758 50.2727C59.0777 50.3224 58.7851 50.0684 58.3786 49.6709C58.2702 49.566 58.1618 49.4611 58.048 49.3617C57.013 48.4563 55.4143 48.3183 54.2437 49.0305C53.2466 49.6378 52.6126 50.9352 52.6667 52.2602C52.7155 53.403 53.2629 54.325 54.1733 54.7777C54.9753 55.1752 55.9887 55.0813 56.7041 54.5348C56.9696 54.3305 57.181 54.0876 57.3815 53.8502C57.4844 53.7287 57.5766 53.6183 57.6795 53.5134C57.8909 53.2981 58.2052 53.0386 58.5303 53.0607C58.9097 53.0883 59.1915 53.5244 59.2078 53.9054C59.2348 54.4299 58.9205 54.9212 58.655 55.2414C58.0697 55.9481 57.2026 56.4339 56.2163 56.5995Z" fill="#FAB31C"/>
</svg>
