<svg width="87" height="89" viewBox="0 0 87 89" fill="none" xmlns="http://www.w3.org/2000/svg">
<ellipse cx="43.3897" cy="44.5" rx="41.7178" ry="42.5" fill="white" stroke="#FDD5D5" stroke-width="3" stroke-linejoin="round" stroke-dasharray="4 4"/>
<path d="M53.1318 63.9122C53.1776 64.1514 53.023 64.3789 52.794 64.4256C49.387 65.0964 46.2893 65.4289 43.3461 65.4289C40.3801 65.4289 37.5686 65.0906 34.7343 64.4081C34.5052 64.3497 34.3621 64.1164 34.4136 63.8831C34.4709 63.6497 34.6999 63.5039 34.9289 63.5564C40.4488 64.8806 45.9114 64.8864 52.6279 63.5622C52.857 63.5156 53.086 63.6731 53.1318 63.9122ZM39.0745 31.0706C39.4296 30.3472 39.2864 29.5189 39.1776 28.9122C39.0116 27.9789 38.8741 27.0164 38.7367 26.0889C38.5993 25.1556 38.4619 24.1872 38.2958 23.2422C38.2557 23.0031 38.0324 22.8456 37.7977 22.8864C37.5629 22.9272 37.4083 23.1547 37.4484 23.3939C37.6144 24.3272 37.7518 25.2897 37.8893 26.2172C38.0267 27.1506 38.1641 28.1189 38.3302 29.0639C38.439 29.6881 38.5134 30.2422 38.3015 30.6739C37.9866 31.3156 37.1163 31.5372 36.2287 31.6772L32.4267 32.2897C31.7281 32.4006 31.0067 32.4822 30.5314 32.1381C30.1019 31.8289 29.9244 31.2106 29.7584 30.5514L28.4242 25.1031C28.367 24.8697 28.1322 24.7239 27.9032 24.7822C27.6741 24.8406 27.531 25.0797 27.5882 25.3131L28.9224 30.7614C29.077 31.3856 29.306 32.3247 30.0275 32.8497C30.457 33.1647 30.9494 33.2639 31.459 33.2639C31.8197 33.2639 32.1919 33.2114 32.5527 33.1531L36.3547 32.5406C37.4827 32.3714 38.5878 32.0681 39.0745 31.0706ZM61.7952 21.4806C61.9154 22.2214 61.7494 22.9447 61.5948 23.5806C61.3715 24.5256 61.1653 25.4997 60.9649 26.4389C60.7645 27.3839 60.5584 28.3581 60.3351 29.3147C60.3064 29.4314 60.2835 29.5481 60.2549 29.6647C60.043 30.6156 59.8026 31.6889 58.9322 32.3189C58.1077 32.9139 57.0484 32.9547 55.7257 32.7856C55.6283 33.4097 55.5825 33.7947 55.5482 34.1214C55.5138 34.4306 55.4852 34.6697 55.4279 34.9789C55.3134 35.6264 55.1416 36.6006 54.3801 37.1197C54.3056 37.1722 54.2312 37.2131 54.1568 37.2481C54.1338 37.3997 54.1109 37.5572 54.088 37.7147C54.4201 37.7964 54.7294 37.8781 55.0099 37.9597C56.47 38.4031 57.9416 39.5581 57.8901 40.7364C57.8901 40.7364 57.8844 40.8472 57.8786 40.8706C57.7469 42.1714 56.2296 57.3089 55.4852 63.2764C55.3878 64.0639 55.405 64.7347 55.4165 65.2714C55.4279 65.6447 55.4336 65.9422 55.3993 66.1814C55.3764 66.3331 55.279 66.4672 55.1359 66.5256C51.8435 67.8847 49.2439 68.0481 44.2451 68.0481C44.1249 68.0481 44.0046 68.0481 43.8786 68.0481C37.477 68.0364 34.2189 67.1322 33.1482 66.8347C32.9878 66.7881 32.8733 66.6597 32.839 66.4964C32.7588 66.0706 32.7588 65.5689 32.7645 65.0439C32.7703 64.5247 32.7703 63.9822 32.6901 63.5214C32.4381 62.1156 32.1633 60.4764 31.877 58.7439C31.5563 58.7789 31.2471 58.8022 30.9494 58.8022C29.8214 58.8022 28.8766 58.5339 28.0692 57.9914C27.1015 57.3381 26.4259 56.3056 26.1167 55.0106C25.8418 53.8439 25.8876 52.5489 26.2484 51.3706C26.9298 49.1481 28.5216 47.3047 29.8386 45.8114C29.4893 43.5247 29.2545 41.9614 29.2316 41.7922C29.0197 40.6489 29.2889 39.7972 30.0676 39.2022C30.7433 38.6831 31.7625 38.3972 32.7473 38.1172C32.8275 38.0939 32.9134 38.0706 32.9936 38.0472C32.9707 37.8956 32.9478 37.7497 32.9363 37.6156C32.8275 36.7056 32.6729 35.7664 32.5813 35.2297C31.0353 35.5797 29.369 35.7256 28.1895 34.4131C27.4966 33.6431 27.3249 32.6572 27.1531 31.7006C27.1187 31.5081 27.0844 31.3039 27.0443 31.1114L26.088 26.4214C25.9563 25.7797 25.796 24.9747 25.985 24.2047C26.1797 23.4289 26.7465 22.8864 27.5768 22.6764C28.5617 22.4256 37.6717 20.6056 38.1469 20.5239C38.9028 20.3897 39.5899 20.7514 40.0365 21.5156C40.4087 22.1631 40.506 22.8981 40.5919 23.5514C40.7179 24.5197 40.8668 25.4997 41.0099 26.4447C41.1531 27.4014 41.3019 28.3872 41.4279 29.3614C41.4451 29.4781 41.4623 29.6006 41.4795 29.7172C41.6169 30.6797 41.7715 31.7764 41.176 32.6806C40.6148 33.5381 39.6414 33.9581 38.3473 34.2847C38.479 34.9031 38.5707 35.2822 38.6508 35.5972C38.7253 35.8947 38.7825 36.1339 38.8398 36.4431C38.8684 36.6064 38.9028 36.7931 38.9314 36.9914C41.6684 36.7114 44.623 36.6472 47.7265 36.8047C48.1101 36.8222 48.8946 36.8922 49.8222 36.9972C49.8508 36.7989 49.8737 36.6064 49.8966 36.4256C49.6962 36.2447 49.5359 36.0172 49.4328 35.7256C49.2038 35.0897 49.3641 34.4131 49.4844 33.9231C49.7019 33.0364 49.8909 32.1031 49.994 31.5664C48.4308 31.3272 46.8218 30.8606 46.1805 29.1981C45.8083 28.2297 45.9915 27.2439 46.169 26.2872C46.2034 26.0947 46.2435 25.8906 46.2721 25.6981L47.0279 20.9731C47.131 20.3256 47.2627 19.5147 47.7093 18.8672C48.1731 18.2022 49.1179 17.6947 49.9653 18.0681C50.5093 18.3072 50.9044 18.8672 51.0189 19.5672C51.1163 20.1331 51.0246 20.6931 50.9445 21.1889L50.16 26.0597C50.4005 26.1064 50.6582 26.1531 50.9044 26.1939C51.1449 26.2347 51.3968 26.2814 51.6373 26.3281C51.7633 25.4997 51.8606 24.8522 51.958 24.2047C52.0725 23.4347 52.1927 22.6647 52.3531 21.6031C52.4619 20.8797 52.5993 19.9814 53.1719 19.2931C53.6586 18.7097 54.4087 18.4647 55.0958 18.6806C55.7085 18.8672 56.1379 19.3689 56.2925 20.0864C56.4013 20.5706 56.3956 21.1072 56.2811 21.7722C55.9719 23.5572 55.8001 24.4206 55.6054 25.4181C55.5081 25.9081 55.4107 26.4097 55.2848 27.0747C55.5253 27.1156 55.7543 27.1564 55.9891 27.1972C56.2296 27.2381 56.4643 27.2847 56.7163 27.3256C56.848 26.6606 56.9797 25.9197 57.1114 25.1964C57.2717 24.3156 57.4377 23.4056 57.5923 22.6356C57.7183 22.0114 57.8615 21.3056 58.2623 20.7047C58.7261 20.0047 59.5105 19.6489 60.2549 19.7947C61.0451 19.9406 61.6521 20.6231 61.7952 21.4806ZM49.7707 43.1047C50.7154 42.9706 51.5858 42.8189 52.3645 42.6556C52.3989 42.6497 52.4447 42.6381 52.4905 42.6322L52.6909 41.2847C52.857 40.1764 53.023 39.0389 53.1833 37.9831C53.212 37.7906 53.2406 37.6039 53.2692 37.4231C52.8627 37.4172 52.4504 37.3239 52.084 37.2422C52.0038 37.2247 51.7461 37.1664 51.7461 37.1664C51.4197 37.0964 51.059 37.0206 50.7212 36.8922C50.6925 37.0964 50.6639 37.3122 50.6296 37.5456C50.4864 38.5606 50.3146 39.6456 50.1486 40.6956C50.0169 41.4947 49.8909 42.3172 49.7707 43.1047ZM38.376 39.1147C38.6107 40.4447 38.8913 42.0139 39.1833 43.6472C42.2467 43.7639 45.7396 43.6122 48.8889 43.2272C49.0148 42.3581 49.158 41.4481 49.3011 40.5614C49.4443 39.6689 49.5874 38.7472 49.7134 37.8664C48.6999 37.7497 47.967 37.6914 47.6979 37.6797C44.6116 37.5222 41.6741 37.5864 38.9658 37.8722C38.9314 38.1989 38.8341 38.5314 38.6279 38.8289C38.5535 38.9339 38.4676 39.0272 38.376 39.1147ZM33.1653 34.3372C33.2627 34.4014 33.3314 34.5064 33.3543 34.6231C33.3543 34.6406 33.6234 36.1106 33.7952 37.5106C33.8582 38.0181 33.9269 38.4614 34.1731 38.7472C34.5797 39.2139 35.3126 39.1381 36.16 39.0039L36.2345 38.9922C36.8872 38.8872 37.6201 38.7706 37.9294 38.3214C38.2214 37.8956 38.1355 37.2656 38.0152 36.6064C37.9637 36.3206 37.9122 36.1106 37.8377 35.8131C37.7404 35.4222 37.6201 34.9381 37.4426 34.0456C37.3968 33.8122 37.54 33.5847 37.769 33.5322C39.0631 33.2406 40.0193 32.8964 40.4831 32.1964C40.8954 31.5722 40.7694 30.6972 40.6492 29.8456C40.632 29.7231 40.6148 29.6006 40.5977 29.4781C40.4717 28.5097 40.3228 27.5297 40.1797 26.5789C40.0365 25.6222 39.8876 24.6364 39.7617 23.6622C39.6872 23.0672 39.6071 22.4489 39.3208 21.9589C39.0574 21.5097 38.7195 21.3114 38.3187 21.3872C37.5629 21.5214 28.6819 23.3064 27.8058 23.5281C27.2733 23.6622 26.9527 23.9597 26.8381 24.4264C26.695 24.9981 26.8267 25.6631 26.9469 26.2464L27.9032 30.9364C27.9433 31.1406 27.9833 31.3506 28.0177 31.5489C28.1723 32.4181 28.3154 33.2464 28.8422 33.8297C29.495 34.5589 30.394 34.8914 32.839 34.2847C32.8733 34.2789 32.9077 34.2731 32.942 34.2731C33.0165 34.2672 33.0966 34.2906 33.1653 34.3372ZM37.5858 39.5814C37.185 39.7272 36.7498 39.7972 36.3604 39.8614L36.2917 39.8731C35.9711 39.9256 35.576 39.9897 35.1809 39.9897C35.1236 39.9897 35.0664 39.9897 35.0148 39.9839C35.221 41.0281 35.4214 42.1656 35.6332 43.4022C36.0512 43.4314 36.4463 43.4606 36.8185 43.4956C37.2938 43.5422 37.7919 43.5772 38.3073 43.6064C38.0439 42.1656 37.7977 40.7889 37.5858 39.5814ZM30.079 41.6289C30.0848 41.6289 30.0848 41.6347 30.079 41.6289C30.079 41.6347 30.079 41.6347 30.079 41.6347C30.3195 42.8831 32.8848 43.1864 34.74 43.3322C34.5167 42.0314 34.3105 40.8414 34.0872 39.7622C33.8811 39.6631 33.6921 39.5231 33.5204 39.3247C33.4058 39.1906 33.3142 39.0447 33.2398 38.8872C33.1482 38.9106 33.0623 38.9339 32.9764 38.9572C30.6402 39.6222 29.7813 40.0247 30.079 41.6289ZM31.7396 57.8806C31.1269 54.1356 30.497 50.0522 30.0161 46.9314C28.8308 48.2964 27.6283 49.8247 27.0729 51.6331C26.2999 54.1531 27.2275 56.3697 28.5445 57.2622C29.3805 57.8222 30.4283 58.0264 31.7396 57.8806ZM56.8823 42.2181C55.9261 42.8247 54.4201 43.1747 52.9428 43.4372C52.9428 43.4372 52.9428 43.4372 52.9371 43.4372C52.7768 43.4664 52.6279 43.4897 52.5363 43.5131C51.5801 43.7172 50.4979 43.8981 49.3183 44.0497C46.7473 44.3822 43.9244 44.5572 41.2733 44.5572C40.4259 44.5572 39.6013 44.5397 38.7997 44.5047C38.084 44.4697 37.3854 44.4231 36.7326 44.3647C36.3547 44.3297 35.9482 44.3006 35.513 44.2714L35.2267 44.2539H35.221C33.5948 44.1372 31.5621 43.9856 30.3195 43.2447C30.749 46.0972 31.6938 52.2922 32.5813 57.7581C33.1424 57.6472 33.7551 57.4781 34.4709 57.2389C40.9355 55.0806 47.0279 51.5806 52.2042 47.0656C52.1756 46.9956 52.1527 46.9197 52.1298 46.8439C51.9351 46.1031 52.1813 45.2689 52.7596 44.7264C53.2864 44.2306 54.2999 44.0031 55.0214 44.4872C56.1952 45.2747 55.9433 46.2547 55.8116 46.7797C55.594 47.6197 54.758 48.2789 53.9105 48.2789C53.8819 48.2789 53.8533 48.2789 53.8246 48.2789C53.4067 48.2556 53.0116 48.0747 52.7024 47.7831C47.4516 52.3447 41.2848 55.8797 34.74 58.0672C33.9842 58.3181 33.3314 58.4989 32.7244 58.6214C33.0107 60.3481 33.2856 61.9814 33.5318 63.3814C33.6291 63.9239 33.6234 64.5072 33.6177 65.0672C33.6177 65.4347 33.612 65.7847 33.6406 66.0822C37.7862 67.1789 42.3555 67.1847 43.8729 67.1906C44.0046 67.1906 44.1363 67.1906 44.2623 67.1906C49.095 67.1906 51.5114 67.0447 54.5518 65.8314C54.5518 65.6797 54.5518 65.5047 54.5461 65.3064C54.5347 64.7697 54.5175 64.0289 54.6206 63.1772C55.2676 58.1022 56.4586 46.4006 56.8823 42.2181ZM54.3686 46.2722C54.0365 46.5872 53.6987 46.8964 53.3608 47.1997C53.5154 47.3164 53.693 47.3922 53.8762 47.3981C54.3457 47.4214 54.8668 47.0306 54.987 46.5581C55.1302 45.9981 55.1874 45.6364 54.5576 45.2164C54.4316 45.1347 54.277 45.0939 54.1109 45.0939C53.8304 45.0939 53.5269 45.2047 53.3494 45.3681C53.0631 45.6364 52.9085 46.0389 52.9371 46.4122C53.2234 46.1556 53.5097 45.8931 53.7846 45.6247C53.9563 45.4614 54.2312 45.4731 54.3915 45.6481C54.5518 45.8289 54.5404 46.1031 54.3686 46.2722ZM53.9621 38.5781C53.8246 39.4997 53.6815 40.4622 53.5383 41.4131L53.3837 42.4689C53.9792 42.3522 54.7465 42.1831 55.4279 41.9381C56.4013 41.5881 56.9682 41.1739 57.0312 40.7597C57.0312 40.7364 57.0369 40.7189 57.0369 40.7072C57.0655 40.0889 55.9662 39.1614 54.7694 38.7997C54.5232 38.7239 54.2541 38.6539 53.9621 38.5781ZM60.9478 21.6264C60.8676 21.1247 60.5298 20.7339 60.1118 20.6464C59.7052 20.5647 59.27 20.7747 58.9952 21.1831C58.6917 21.6381 58.5715 22.2331 58.457 22.7989C58.3024 23.5631 58.1363 24.4672 57.976 25.3422C57.8386 26.0831 57.7011 26.8531 57.5637 27.5356C57.4778 27.9731 57.0713 28.2589 56.6361 28.1831C56.367 28.1364 56.115 28.0897 55.8574 28.0431C55.6111 27.9964 55.3592 27.9556 55.1015 27.9089C54.884 27.8739 54.7007 27.7514 54.5748 27.5647C54.4488 27.3839 54.403 27.1622 54.4488 26.9406C54.5805 26.2464 54.6835 25.7272 54.7809 25.2256C54.9756 24.2339 55.1473 23.3764 55.4508 21.6031C55.5482 21.0547 55.5539 20.6289 55.468 20.2614C55.3764 19.8472 55.176 19.5964 54.861 19.5031C54.506 19.3922 54.1052 19.5264 53.8418 19.8472C53.4296 20.3489 53.3208 21.0489 53.2177 21.7256C53.0574 22.7872 52.9371 23.5572 52.8226 24.3272C52.7195 24.9922 52.6222 25.6514 52.4905 26.5089C52.4561 26.7306 52.3359 26.9289 52.1584 27.0572C51.9809 27.1856 51.7518 27.2322 51.54 27.1914C51.2938 27.1389 51.0304 27.0981 50.7784 27.0514C50.5093 27.0047 50.2287 26.9581 49.9596 26.8997C49.5302 26.8122 49.2553 26.3981 49.324 25.9606L50.1142 21.0431C50.1887 20.5939 50.2631 20.1331 50.1887 19.7072C50.1371 19.3922 49.9653 19.0072 49.639 18.8672C49.5531 18.8264 49.4615 18.8089 49.3641 18.8089C49.0091 18.8089 48.6369 19.0539 48.4193 19.3631C48.0815 19.8472 47.9784 20.5122 47.8811 21.1014L47.1253 25.8264C47.0909 26.0306 47.0566 26.2406 47.0165 26.4389C46.8561 27.3081 46.7015 28.1306 46.9821 28.8656C47.3371 29.7872 48.0586 30.4231 50.5551 30.7497C50.6696 30.7672 50.7784 30.8314 50.8471 30.9247C50.9159 31.0239 50.9445 31.1464 50.9216 31.2631C50.9216 31.2806 50.6467 32.7506 50.3146 34.1214C50.1944 34.6172 50.1028 35.0606 50.2345 35.4106C50.3032 35.6031 50.4291 35.7489 50.6009 35.8656C50.8987 36.0639 51.3453 36.1747 51.9064 36.2972C51.9064 36.2972 52.1698 36.3556 52.2557 36.3731C52.8627 36.5131 53.4925 36.6531 53.8876 36.3847C54.3114 36.0931 54.4545 35.4747 54.569 34.8097C54.6206 34.5239 54.6435 34.3081 54.6835 34.0047C54.7293 33.6081 54.7866 33.1122 54.9355 32.2139C54.9756 31.9806 55.1932 31.8172 55.4222 31.8522C56.7334 32.0506 57.7469 32.0856 58.4283 31.5956C59.0296 31.1639 59.2242 30.3006 59.4075 29.4606C59.4361 29.3381 59.459 29.2156 59.4876 29.0989C59.7109 28.1539 59.9171 27.1797 60.1175 26.2406C60.3179 25.2956 60.524 24.3214 60.7473 23.3647C60.8962 22.7931 61.0394 22.1864 60.9478 21.6264Z" fill="#F32C2C"/>
</svg>
