<svg width="87" height="89" viewBox="0 0 87 89" fill="none" xmlns="http://www.w3.org/2000/svg">
<ellipse cx="43.7178" cy="44.5" rx="41.7178" ry="42.5" fill="white" stroke="#FFA7E5" stroke-width="3" stroke-linejoin="round" stroke-dasharray="4 4"/>
<path d="M63.0626 47.2721C62.1552 42.5959 61.2241 37.7686 60.5896 34.6088C61.3961 33.8838 61.7401 32.5667 61.3309 31.5638C60.8861 30.4703 59.6466 29.8057 58.508 30.0413C57.3693 30.283 56.4916 31.3946 56.5094 32.5788C56.5272 33.6542 57.3041 34.7236 58.2826 35.068C58.7393 38.1975 59.5873 43.188 60.4117 48.0213C61.2597 53.0057 62.1434 58.1532 62.5822 61.2465C62.6475 61.6875 62.8372 63.0409 63.9106 63.2705C63.9996 63.2886 64.0826 63.2946 64.1657 63.2946C64.8595 63.2946 65.4526 62.7025 65.6364 62.0682C65.8321 61.4157 65.6957 60.739 65.583 60.1953C64.9544 57.0536 63.9937 52.0813 63.0626 47.2721ZM64.7884 61.8084C64.6935 62.1286 64.3792 62.4367 64.0945 62.3823C63.709 62.2978 63.537 61.6513 63.4659 61.1136C63.0211 58.0142 62.1434 52.8546 61.2894 47.8642C60.4413 42.8798 59.5577 37.7323 59.1188 34.645C59.0892 34.4517 58.9468 34.3007 58.7571 34.2644C58.0454 34.1375 57.4109 33.3461 57.399 32.5667C57.3871 31.8175 57.9683 31.0805 58.6859 30.9294C58.7808 30.9113 58.8816 30.8992 58.9765 30.8992C59.6111 30.8992 60.2575 31.31 60.5066 31.9082C60.7853 32.5909 60.465 33.624 59.8483 34.0409C59.6941 34.1436 59.6229 34.3309 59.6585 34.5121C60.2931 37.6598 61.2538 42.6321 62.1849 47.4473C63.116 52.2565 64.0767 57.2348 64.7113 60.3825C64.8121 60.8478 64.9188 61.3734 64.7884 61.8084ZM55.092 53.3078C53.7162 53.2655 52.3344 53.2232 50.9526 53.1809L50.9407 53.1144C50.8814 52.7157 50.8162 52.3169 50.7569 51.9182C51.6642 51.9484 52.5657 51.9846 53.4671 52.0269C53.473 52.0269 53.479 52.0269 53.4849 52.0269C53.7221 52.0269 53.9178 51.8396 53.9297 51.598C53.989 50.4017 53.9949 49.3505 54.0068 48.3415C54.0127 47.3386 54.0246 46.2994 54.0839 45.1213C54.0898 45.0005 54.0483 44.8796 53.9652 44.789C53.8822 44.6984 53.7695 44.65 53.6509 44.644C52.3106 44.6198 50.9644 44.5896 49.6241 44.5594L49.3929 43.049C50.318 43.0853 51.2491 43.1275 52.1742 43.1759C52.1802 43.1759 52.192 43.1759 52.198 43.1759C52.4293 43.1759 52.625 42.9946 52.6428 42.753C52.708 41.8286 52.7376 40.7532 52.7673 39.714C52.7969 38.6869 52.8207 37.6236 52.8859 36.7173C52.8918 36.5965 52.8563 36.4757 52.7732 36.385C52.6902 36.2944 52.5834 36.24 52.4589 36.234C51.0771 36.1736 49.6953 36.1192 48.3135 36.0769L48.3016 36.0044C48.2186 35.4788 48.1415 34.9592 48.0585 34.4396C48.9718 34.4638 49.8792 34.488 50.7865 34.5121C50.7924 34.5121 50.7924 34.5121 50.7984 34.5121C51.0356 34.5121 51.2372 34.3188 51.2432 34.0771C51.2669 33.2978 51.2847 32.1498 51.3084 31.0442C51.3262 29.9386 51.344 28.7967 51.3677 28.0234C51.3736 27.7757 51.1898 27.5642 50.9407 27.5582C47.5248 27.395 43.8657 27.3407 40.3311 27.2803C36.8025 27.2259 33.1493 27.1655 29.7511 27.0084C29.6325 27.0023 29.5139 27.0446 29.425 27.1292C29.336 27.2138 29.2886 27.3286 29.2826 27.4494C29.2648 28.2711 29.2411 29.3525 29.2115 30.434C29.1877 31.5155 29.1581 32.5969 29.1403 33.4186C29.1344 33.6663 29.3301 33.8778 29.5732 33.8838C30.4569 33.908 31.3405 33.9321 32.2241 33.9563C32.1055 34.5242 31.981 35.0982 31.8624 35.6721C30.5162 35.6298 29.164 35.5815 27.8119 35.5211C27.6933 35.515 27.5747 35.5573 27.4916 35.6419C27.4027 35.7265 27.3552 35.8413 27.3493 35.9621L27.1892 41.8769C27.1832 42.1246 27.3671 42.33 27.6102 42.3421C28.5473 42.3905 29.4843 42.4328 30.4213 42.469L30.101 43.9794C28.8141 43.9492 27.5272 43.919 26.2344 43.8948H26.2284C26.0031 43.8948 25.8133 44.064 25.7896 44.2936C25.6591 45.4113 25.6473 46.4988 25.6295 47.55C25.6176 48.5771 25.5998 49.6405 25.4753 50.7159C25.4634 50.8428 25.499 50.9636 25.5761 51.0603C25.6532 51.1569 25.7718 51.2113 25.8963 51.2173C26.774 51.2536 27.6517 51.2898 28.5354 51.32C28.4524 51.7188 28.3634 52.1175 28.2804 52.5163C26.8926 52.474 25.5049 52.4317 24.1231 52.3894C24.0045 52.3834 23.8918 52.4317 23.8029 52.5103C23.7198 52.5948 23.6665 52.7096 23.6605 52.8244L23.4767 59.8025C23.4708 60.0503 23.6605 60.2557 23.9037 60.2678C29.0217 60.4792 34.3235 60.6242 39.4534 60.7632C44.5773 60.9021 49.8732 61.0471 54.9853 61.2586C54.9912 61.2586 54.9972 61.2586 55.0031 61.2586C55.2225 61.2586 55.4123 61.0955 55.4419 60.8719C55.7681 58.6848 55.7088 56.4313 55.525 53.7246C55.5072 53.5011 55.3174 53.3198 55.092 53.3078ZM30.0477 32.9896C30.0655 32.2405 30.0832 31.3463 30.107 30.4582C30.1307 29.57 30.1485 28.6819 30.1663 27.9328C33.4517 28.0778 36.9389 28.1321 40.3192 28.1865C43.6996 28.2409 47.1867 28.2953 50.4663 28.4403C50.4485 29.1773 50.4307 30.1138 50.4188 31.0261C50.407 31.9323 50.3892 32.8628 50.3714 33.5998C49.4344 33.5757 48.5033 33.5515 47.5663 33.5213C47.5603 33.5213 47.5603 33.5213 47.5544 33.5213C45.0873 33.4488 42.6203 33.3703 40.2066 33.2917C38.8248 33.2494 37.4311 33.2011 36.0256 33.1588H36.0196C34.0329 33.1044 32.0344 33.044 30.0477 32.9896ZM47.4061 36.0588C46.6233 36.0346 45.8464 36.0165 45.0695 35.9923C44.9865 35.4425 44.9035 34.8928 44.8205 34.349C45.5974 34.3732 46.3742 34.3973 47.1571 34.4215C47.2342 34.9653 47.3231 35.509 47.4061 36.0588ZM44.1622 35.9742C42.8041 35.944 41.4579 35.9138 40.1235 35.8836C38.7655 35.8534 37.3955 35.8232 36.0137 35.793C36.1323 35.219 36.2509 34.6511 36.3755 34.0832C37.6565 34.1255 38.9256 34.1617 40.1828 34.204C41.4164 34.2463 42.6618 34.2825 43.919 34.3248C43.9961 34.8686 44.0792 35.4184 44.1622 35.9742ZM35.4681 34.053C35.3495 34.6209 35.2309 35.1948 35.1064 35.7688C34.3295 35.7507 33.5466 35.7265 32.7697 35.7023C32.8943 35.1284 33.0129 34.5544 33.1315 33.9805C33.9143 34.0046 34.6912 34.0288 35.4681 34.053ZM28.0906 41.46L28.227 36.4455C29.5436 36.4998 30.8601 36.5482 32.1767 36.5905C32.1945 36.5905 32.2123 36.5905 32.2241 36.5905C32.2301 36.5905 32.2301 36.5905 32.236 36.5905C33.3094 36.6207 34.3769 36.6509 35.4444 36.6811C35.4503 36.6811 35.4622 36.6811 35.4681 36.6811H35.474C37.0338 36.7173 38.5816 36.7536 40.1057 36.7838C41.6121 36.814 43.1421 36.8503 44.6841 36.8865C47.0918 36.9469 49.5293 37.0194 51.9608 37.1221C51.9133 37.9317 51.8896 38.8259 51.8659 39.6898C51.8421 40.5538 51.8184 41.4419 51.7769 42.2455C47.7679 42.0461 43.7826 41.9434 39.9219 41.8528C36.0671 41.7621 32.0877 41.6594 28.0906 41.46ZM48.7168 44.5353C47.934 44.5171 47.1511 44.493 46.3683 44.4688C46.2912 43.9553 46.2082 43.4417 46.1311 42.9282C46.9139 42.9523 47.6967 42.9825 48.4796 43.0128L48.7168 44.5353ZM45.4669 44.4446C43.6106 44.3903 41.7663 44.3298 39.9456 44.2755C38.0716 44.215 36.1738 44.1546 34.2583 44.1003C34.365 43.6109 34.4659 43.1155 34.5726 42.6261C36.3695 42.6805 38.1487 42.7228 39.9041 42.7711C41.6536 42.8134 43.4327 42.8617 45.2297 42.91L45.2356 42.9523C45.3127 43.4417 45.3898 43.9432 45.4669 44.4446ZM33.6652 42.5898C33.5585 43.0792 33.4577 43.5746 33.3509 44.064C32.5681 44.0398 31.7853 44.0217 31.0025 43.9975L31.3227 42.4992C32.1055 42.5415 32.8884 42.5657 33.6652 42.5898ZM26.4064 50.3413C26.4894 49.3928 26.5012 48.4684 26.5131 47.5682C26.525 46.668 26.5368 45.7436 26.6258 44.8132C28.9861 44.8555 31.3524 44.9159 33.7008 44.9884H33.7068C35.7943 45.0488 37.87 45.1153 39.916 45.1817C42.9702 45.2784 46.0955 45.3811 49.2327 45.4596C49.2327 45.4596 49.2327 45.4596 49.2387 45.4596C50.5493 45.4898 51.8599 45.52 53.1765 45.5503C53.135 46.5592 53.1291 47.4594 53.1231 48.3415C53.1172 49.2175 53.1113 50.1178 53.0697 51.1146C52.1327 51.0723 51.1957 51.0421 50.2587 51.0059C50.2587 51.0059 50.2587 51.0059 50.2528 51.0059C49.1675 50.9696 48.0822 50.9334 46.9969 50.9032H46.991C44.5417 50.8367 42.1043 50.7823 39.7084 50.728C35.3614 50.6253 30.8661 50.5286 26.4064 50.3413ZM50.0511 53.1567C49.2624 53.1325 48.4796 53.1084 47.6908 53.0842L47.673 52.9513C47.6137 52.5707 47.5544 52.19 47.501 51.8094C48.2839 51.8336 49.0726 51.8578 49.8554 51.8819C49.9207 52.3109 49.9859 52.7338 50.0511 53.1567ZM46.7894 53.06C44.3757 52.9875 41.9738 52.9211 39.6076 52.8546C37.2473 52.7882 34.8513 52.7157 32.4495 52.6492C32.5325 52.2565 32.6156 51.8578 32.6986 51.465C35.053 51.5315 37.3955 51.5798 39.6965 51.6282C41.9679 51.6765 44.2749 51.7248 46.5996 51.7913C46.6589 52.2142 46.7241 52.6371 46.7894 53.06ZM31.7912 51.4348C31.7082 51.8336 31.6252 52.2263 31.5421 52.619C30.7593 52.5948 29.9706 52.5707 29.1877 52.5465C29.2708 52.1538 29.3538 51.755 29.4428 51.3563C30.2256 51.3925 31.0084 51.4167 31.7912 51.4348ZM54.6176 60.3403C49.6241 60.1348 44.4706 59.9959 39.4771 59.8569C34.5014 59.718 29.3597 59.579 24.3781 59.3796L24.5442 53.3198C29.5614 53.4769 34.6556 53.6219 39.5839 53.7609C42.1221 53.8334 44.7078 53.9059 47.2994 53.9844C47.3053 53.9844 47.3053 53.9844 47.3113 53.9844C48.3906 54.0146 49.464 54.0448 50.5434 54.0811C50.5552 54.0811 50.5612 54.0811 50.573 54.0811C50.573 54.0811 50.573 54.0811 50.579 54.0811C51.943 54.1234 53.307 54.1657 54.665 54.208C54.8133 56.5038 54.8548 58.4673 54.6176 60.3403ZM36.6423 29.8963C36.4288 29.2861 35.8417 28.9175 35.1182 28.9417C34.3354 28.9659 33.6593 29.4432 33.4755 30.1017C33.2916 30.7723 33.6059 31.5396 34.2108 31.8961C34.454 32.0411 34.7327 32.1075 35.0174 32.1075C35.3969 32.1075 35.7765 31.9807 36.0789 31.745C36.6305 31.304 36.8677 30.5307 36.6423 29.8963ZM35.5393 31.0261C35.2902 31.2255 34.9166 31.2617 34.6556 31.1107C34.4006 30.9657 34.2583 30.6213 34.3354 30.3555C34.4243 30.0473 34.8217 29.8661 35.1479 29.854C35.1597 29.854 35.1657 29.854 35.1775 29.854C35.3258 29.854 35.6875 29.8903 35.8002 30.2105C35.901 30.4763 35.7884 30.8267 35.5393 31.0261ZM44.9391 32.18C45.0518 32.2042 45.1644 32.2163 45.2771 32.2163C45.7515 32.2163 46.2082 32.0109 46.5106 31.6484C46.908 31.1711 46.9792 30.4703 46.6886 29.9386C46.3624 29.3405 45.6092 29.0565 44.856 29.2378C44.1622 29.4069 43.6996 29.9386 43.6759 30.585C43.6462 31.3221 44.2037 32.023 44.9391 32.18ZM45.0636 30.1198C45.3661 30.0473 45.7693 30.1138 45.9117 30.3796C46.0243 30.585 45.9888 30.875 45.8346 31.0623C45.6744 31.2557 45.3839 31.3523 45.1288 31.2919C44.8145 31.2255 44.5536 30.9173 44.5655 30.6153C44.5714 30.2648 44.945 30.144 45.0636 30.1198ZM33.9262 37.7746C33.3747 37.539 32.663 37.6417 32.1233 38.0405C31.6607 38.3788 31.4057 38.8984 31.4532 39.3938C31.4947 39.8107 31.7378 40.2034 32.1233 40.4692C32.4258 40.6807 32.7875 40.7834 33.1434 40.7834C33.4102 40.7834 33.6771 40.723 33.9203 40.5961C34.5192 40.2819 34.8751 39.5992 34.7802 38.9407C34.6912 38.3909 34.3947 37.98 33.9262 37.7746ZM33.5111 39.7925C33.2442 39.9315 32.8884 39.9013 32.6215 39.72C32.4614 39.6113 32.3546 39.4542 32.3428 39.3092C32.325 39.134 32.4495 38.9225 32.6452 38.7775C32.835 38.6386 33.0781 38.56 33.2976 38.56C33.3984 38.56 33.4992 38.5782 33.5822 38.6144C33.7601 38.693 33.861 38.838 33.8965 39.0736C33.9321 39.3455 33.772 39.6536 33.5111 39.7925ZM46.7834 41.0009C46.7894 41.0009 46.7894 41.0009 46.7953 41.0009C47.3765 40.9948 47.9162 40.735 48.2364 40.3061C48.5863 39.8348 48.6278 39.2669 48.355 38.7473C48.0407 38.1492 47.3528 37.7565 46.6826 37.7928C46.0659 37.829 45.4787 38.2821 45.2356 38.9165C45.0162 39.4784 45.117 40.0584 45.4965 40.4692C45.8109 40.8015 46.2794 41.0009 46.7834 41.0009ZM46.0599 39.2488C46.1785 38.9467 46.4632 38.7111 46.736 38.693C46.7479 38.693 46.7657 38.693 46.7775 38.693C47.0859 38.693 47.4239 38.8923 47.5663 39.1703C47.673 39.3696 47.6552 39.569 47.5188 39.7563C47.3646 39.9617 47.0859 40.0886 46.7834 40.0946H46.7775C46.5225 40.0946 46.2853 40.004 46.137 39.8469C45.9591 39.6475 45.9947 39.4119 46.0599 39.2488ZM31.9217 45.955C30.9313 45.5382 30.0536 46.1665 29.7215 46.9761C29.3953 47.7796 29.5851 48.8128 30.5814 49.2357C30.8008 49.3263 31.0262 49.3746 31.2397 49.3746C31.5777 49.3746 31.898 49.2659 32.1767 49.0484C32.6926 48.6436 32.9832 47.9246 32.8943 47.254C32.8291 46.6559 32.4673 46.1846 31.9217 45.955ZM31.643 48.3234C31.4354 48.4865 31.1982 48.5107 30.9254 48.3959C30.2612 48.1119 30.4924 47.4534 30.5458 47.3205C30.6407 47.0848 30.9016 46.7284 31.2931 46.7284C31.382 46.7284 31.4769 46.7465 31.5837 46.7888C31.8387 46.8975 31.9869 47.0909 32.0225 47.3688C32.064 47.7192 31.9039 48.118 31.643 48.3234ZM46.4751 48.9336C46.7953 49.3746 47.3172 49.6465 47.8747 49.6646C47.8984 49.6646 47.9162 49.6646 47.9399 49.6646C48.5507 49.6646 49.1319 49.3625 49.464 48.8611C49.8258 48.3173 49.8495 47.6528 49.5174 47.0848C49.1734 46.4867 48.5151 46.1363 47.8391 46.1907C47.1927 46.245 46.5937 46.68 46.3209 47.3023C46.0777 47.8642 46.1311 48.4563 46.4751 48.9336ZM47.1333 47.683C47.2757 47.3628 47.59 47.1332 47.9162 47.103C48.2483 47.0728 48.5804 47.248 48.7524 47.55C48.8235 47.6769 48.9659 48.0032 48.7286 48.3596C48.5567 48.6134 48.2364 48.7765 47.9102 48.7644C47.6256 48.7523 47.3528 48.6134 47.1926 48.4019C46.9969 48.13 47.0503 47.8582 47.1333 47.683ZM29.6088 54.8363C28.909 54.8484 28.2092 55.3257 27.9127 56.0023C27.7466 56.383 27.7466 56.8361 27.9127 57.2469C28.0847 57.6759 28.4049 58.0142 28.8023 58.1713C28.992 58.2498 29.1996 58.2861 29.4012 58.2861C30.0239 58.2861 30.6466 57.9296 30.955 57.3496C31.216 56.8542 31.2278 56.2259 30.9847 55.7184C30.7059 55.1565 30.2078 54.8303 29.6088 54.8363ZM30.1603 56.9328C29.9706 57.2953 29.4902 57.4886 29.1284 57.3375C28.9565 57.2711 28.8141 57.108 28.7311 56.9146C28.6599 56.7273 28.654 56.534 28.7192 56.3769C28.8794 56.0144 29.253 55.7486 29.6147 55.7486C29.8638 55.7486 30.0536 55.8694 30.1722 56.1232C30.2967 56.3709 30.2908 56.6911 30.1603 56.9328ZM48.954 55.078C48.1415 55.3619 47.5544 56.1534 47.5603 56.969C47.5663 57.6759 48.0051 58.2438 48.7405 58.4915C48.9125 58.5519 49.0963 58.5761 49.2802 58.5761C49.8317 58.5761 50.3951 58.3284 50.7628 57.8873C51.2787 57.2832 51.3262 56.383 50.8814 55.7063C50.4603 55.0538 49.719 54.8121 48.954 55.078ZM50.0986 57.2953C49.8317 57.6094 49.381 57.7484 49.0192 57.6275C48.7583 57.543 48.4499 57.3557 48.4499 56.963C48.4499 56.6005 48.7227 56.1111 49.2446 55.9359C49.7783 55.7546 50.0571 56.0688 50.152 56.2138C50.3358 56.4917 50.3951 56.9448 50.0986 57.2953Z" fill="#DF57A8"/>
</svg>
