<svg width="53" height="36" viewBox="0 0 53 36" fill="none" xmlns="http://www.w3.org/2000/svg">
<path d="M11.9906 13.1446C18.2265 13.1446 23.3023 18.2161 23.3023 24.4563C23.3023 30.6965 18.2308 35.768 11.9906 35.768C5.75472 35.768 0.678906 30.6965 0.678906 24.4563L0.625 22.8714C0.625 10.3458 10.7745 0.248047 23.2484 0.248047V6.69523C18.9143 6.69523 14.8972 8.38573 11.831 11.4498C11.2467 12.0341 10.7227 12.612 10.1923 13.2998C10.7766 13.1942 11.4084 13.1446 11.9906 13.1446ZM41.0633 13.1446C47.2992 13.1446 52.375 18.2161 52.375 24.4563C52.375 30.6965 47.3035 35.768 41.0633 35.768C34.8274 35.768 29.7516 30.6965 29.7516 24.4563L29.6977 22.8714C29.6977 10.3458 39.8472 0.248047 52.3211 0.248047V6.69523C48.0409 6.69523 43.9699 8.38573 40.9038 11.4498C40.3194 12.0341 39.7954 12.612 39.3189 13.2998C39.9032 13.1942 40.4811 13.1424 41.0655 13.1424L41.0633 13.1403V13.1446Z" fill="white" fill-opacity="0.41"/>
</svg>
