<svg width="87" height="89" viewBox="0 0 87 89" fill="none" xmlns="http://www.w3.org/2000/svg">
<ellipse cx="43.7178" cy="44.5" rx="41.7178" ry="42.5" fill="white" stroke="#FFA7E5" stroke-width="3" stroke-linejoin="round" stroke-dasharray="4 4"/>
<path d="M50.382 48.5016C51.1117 48.4949 51.8333 48.3484 52.5078 48.0699C54.1395 47.3761 55.4936 46.1585 56.3562 44.6094C58.2816 41.2719 57.7031 37.318 55.0672 35.7957C54.8722 35.6845 54.6689 35.5886 54.459 35.509C55.2297 32.6633 54.3781 29.9746 52.3055 28.7801C51.4037 28.27 50.3577 28.0752 49.3328 28.2266C48.8039 24.9887 46.5598 22.6562 43.9293 22.6562C41.1281 22.6562 38.8062 25.2645 38.4566 28.7535C37.817 28.6644 37.1656 28.7154 36.5476 28.9031C33.9875 29.6934 32.532 32.6352 33.0383 35.9344C32.5679 36.0995 32.1282 36.3416 31.7371 36.6508C29.3566 38.5508 29.3707 42.5465 31.7687 45.557C32.8516 46.9615 34.3717 47.9649 36.0887 48.4086C36.5447 48.5188 37.0121 48.5753 37.4812 48.577C38.0469 48.5793 38.6088 48.4847 39.1426 48.2973C41.3508 50.3781 42.8578 53.1273 43.6348 56.4684C43.0223 56.073 41.6387 55.3398 38.7461 54.398C37.9308 54.084 37.0377 54.0333 36.1922 54.2531C35.773 54.3821 35.401 54.6315 35.1226 54.9705C34.8442 55.3094 34.6717 55.7227 34.6266 56.159C34.5688 56.6295 34.6487 57.1066 34.8567 57.5325C35.0648 57.9585 35.3919 58.3149 35.7984 58.5586C36.7567 59.0839 37.8284 59.368 38.9211 59.3863C39.1379 59.3984 39.3453 59.4047 39.5461 59.4047C39.974 59.4061 40.4014 59.375 40.8246 59.3117C39.5746 62.0703 34.1949 64.3824 34.1387 64.4062C34.0951 64.4248 34.0598 64.4586 34.0393 64.5013C34.0188 64.544 34.0144 64.5927 34.0272 64.6383C34.0399 64.6839 34.0687 64.7234 34.1083 64.7493C34.148 64.7753 34.1957 64.7859 34.2426 64.7793L37.2687 64.3457L34.0898 66.9984C34.0569 67.0258 34.0338 67.0633 34.0243 67.1051C34.0147 67.1469 34.0192 67.1906 34.037 67.2296C34.0547 67.2686 34.0848 67.3007 34.1226 67.3209C34.1604 67.3411 34.2038 67.3483 34.2461 67.3414C40.1941 66.4129 42.5906 63.2895 43.543 60.6586C43.2919 62.5982 42.7129 64.481 41.8309 66.2266C41.8189 66.2493 41.8115 66.2741 41.8092 66.2996C41.8068 66.3252 41.8095 66.3509 41.8171 66.3754C41.8325 66.4249 41.8668 66.4663 41.9127 66.4904C41.9585 66.5146 42.0121 66.5195 42.0616 66.5042C42.1111 66.4888 42.1524 66.4544 42.1766 66.4086C42.9043 64.9884 43.426 63.4717 43.7258 61.9043L43.7105 67.1484C43.7105 67.2002 43.7311 67.2499 43.7677 67.2865C43.8044 67.3232 43.8541 67.3437 43.9059 67.3437C43.9577 67.3437 44.0073 67.3232 44.044 67.2865C44.0806 67.2499 44.1012 67.2002 44.1012 67.1484L44.1141 61.5207C44.4656 63.5766 45.0019 65.4949 45.6598 66.4305C45.6743 66.4519 45.693 66.4702 45.7147 66.4844C45.7364 66.4985 45.7607 66.5082 45.7862 66.5128C45.8117 66.5175 45.8379 66.517 45.8632 66.5115C45.8885 66.5059 45.9124 66.4954 45.9336 66.4805C45.9548 66.4656 45.9728 66.4466 45.9866 66.4247C46.0004 66.4027 46.0097 66.3783 46.014 66.3527C46.0182 66.3272 46.0173 66.301 46.0114 66.2758C46.0054 66.2506 45.9945 66.2268 45.9793 66.2059C45.4156 65.4043 44.8726 63.6035 44.5055 61.4898C45.6445 63.9117 48.1191 66.509 53.4539 67.3422C53.4639 67.3437 53.4739 67.3445 53.484 67.3445C53.5241 67.3446 53.5633 67.3323 53.5962 67.3093C53.6291 67.2862 53.6542 67.2536 53.6679 67.2159C53.6816 67.1781 53.6833 67.1371 53.6728 67.0983C53.6624 67.0595 53.6402 67.0249 53.6094 66.9992L50.4305 64.3465L53.4562 64.7801C53.5032 64.7868 53.551 64.7763 53.5907 64.7504C53.6305 64.7245 53.6594 64.685 53.6722 64.6394C53.685 64.5937 53.6807 64.5449 53.6601 64.5022C53.6396 64.4594 53.6042 64.4256 53.5605 64.407C53.5039 64.3828 48.0918 62.0562 46.8629 59.2867C47.3341 59.3671 47.8114 59.4064 48.2894 59.4039C48.4887 59.4039 48.697 59.3978 48.9144 59.3855C50.0068 59.3679 51.0784 59.0846 52.0367 58.5602C52.4431 58.3164 52.7701 57.96 52.9781 57.5342C53.1861 57.1083 53.2662 56.6313 53.2086 56.1609C53.1635 55.7244 52.9909 55.3108 52.7122 54.9717C52.4336 54.6327 52.0613 54.3831 51.6418 54.2543C50.7965 54.0353 49.904 54.0861 49.0891 54.3996C46.257 55.3215 44.8734 56.0426 44.2418 56.4434C45.1555 52.9551 46.6055 50.2418 48.6711 48.1762C49.2156 48.3922 49.7962 48.5026 50.382 48.5016ZM56.0184 44.4141C55.1992 45.8873 53.913 47.046 52.3625 47.7074C51.716 47.9991 51.0109 48.1373 50.3021 48.1113C49.5934 48.0853 48.9003 47.8957 48.2769 47.5574C47.494 47.094 46.8803 46.3918 46.5258 45.5539C48.2652 44.3766 49.4519 42.057 49.4519 39.3918C49.4516 38.5735 49.3344 37.7594 49.1039 36.9742C50.9574 35.5066 53.209 35.1734 54.8707 36.134C57.3195 37.5488 57.8359 41.2633 56.0184 44.4141ZM35.9133 57.0492C35.818 56.9262 35.7465 56.7512 36.0383 56.4891C36.4383 56.1285 37.1496 55.9945 37.9859 55.9945C39.8609 55.9945 42.3566 56.6656 43.3898 56.9711L43.0859 57.173C40.3223 58.4711 36.5383 57.8629 35.9133 57.0492ZM43.9293 32.7965C46.759 32.7965 49.0613 35.7551 49.0613 39.3918C49.0613 43.0285 46.759 45.9871 43.9293 45.9871C41.0996 45.9871 38.7973 43.0285 38.7973 39.3918C38.7973 35.7551 41.0996 32.7965 43.9293 32.7965ZM43.734 46.3652V54.4172C43.2156 51.3988 42.5297 48.4223 41.2363 46.7574C41.4496 46.4666 41.6284 46.152 41.7691 45.8199C42.374 46.1492 43.046 46.3363 43.734 46.3672V46.3652ZM44.1246 46.3652C44.8516 46.3313 45.5598 46.1234 46.1898 45.759C46.3353 46.0829 46.515 46.3904 46.7258 46.6762C45.3148 48.227 44.6445 51.1801 44.1246 54.3281V46.3652ZM52.109 29.1184C54.0203 30.2195 54.8 32.7211 54.0871 35.3844C52.4828 34.923 50.5949 35.3488 48.9797 36.577C48.1668 34.252 46.382 32.5953 44.2773 32.4281C44.3082 32.3723 44.3371 32.3164 44.368 32.2617C45.1868 30.7886 46.4726 29.63 48.0226 28.9684C48.6692 28.6767 49.3745 28.5385 50.0834 28.5645C50.7923 28.5905 51.4855 28.7801 52.109 29.1184ZM43.9293 23.0469C46.3656 23.0469 48.4508 25.241 48.9465 28.2879C48.5814 28.3612 48.2238 28.4676 47.8781 28.6059C46.2462 29.3001 44.892 30.5181 44.0293 32.0676C43.9648 32.1812 43.9027 32.2969 43.8418 32.4113C43.6481 32.4155 43.4548 32.4323 43.2633 32.4617C42.2379 30.5121 40.5769 29.1973 38.8414 28.8234C39.1598 25.5199 41.3226 23.0469 43.9293 23.0469ZM36.6637 29.2766C38.8867 28.5937 41.457 29.9629 42.8605 32.5391C40.9348 33.0195 39.3703 34.7707 38.7258 37.0703C37.007 35.8164 35.0629 35.3836 33.4133 35.818C32.9652 32.7344 34.3059 30.0039 36.6625 29.2766H36.6637ZM36.1789 48.0309C34.547 47.6073 33.1027 46.652 32.0742 45.316C29.8086 42.4727 29.7695 38.723 31.9809 36.9566C33.7023 35.5863 36.4191 35.8055 38.6215 37.4762C38.4788 38.1042 38.4063 38.7462 38.4055 39.3902C38.4055 42.1059 39.6394 44.4586 41.4328 45.6141C41.1693 46.2642 40.7438 46.8361 40.1969 47.2754C39.6304 47.7019 38.9731 47.9919 38.2762 48.123C37.5793 48.254 36.8616 48.2225 36.1789 48.0309ZM40.4414 47.5828C40.635 47.4264 40.8149 47.2537 40.9793 47.0668C42.0875 48.5445 42.7344 51.0902 43.2219 53.7648C42.4192 51.6426 41.1604 49.7224 39.5344 48.1398C39.8579 47.9912 40.1625 47.8042 40.4414 47.5828ZM38.9445 58.9965C37.9166 58.9817 36.9076 58.718 36.0039 58.2281C35.6612 58.0231 35.3854 57.723 35.2099 57.3644C35.0343 57.0057 34.9666 56.6038 35.0148 56.2074C35.0522 55.8459 35.195 55.5033 35.4256 55.2223C35.6562 54.9414 35.9644 54.7345 36.3117 54.6273C36.5809 54.5445 36.8613 54.5038 37.143 54.5066C37.6486 54.5169 38.1495 54.6064 38.6273 54.7719C39.9976 55.1954 41.3338 55.7224 42.6242 56.3484C40.625 55.8211 37.0172 55.0805 35.7754 56.1984C35.689 56.2558 35.6155 56.3304 35.5594 56.4176C35.5033 56.5048 35.466 56.6027 35.4497 56.7051C35.4334 56.8075 35.4385 56.9122 35.4647 57.0125C35.4909 57.1128 35.5376 57.2066 35.6019 57.2879C36.3832 58.3004 40.35 58.8441 43.1988 57.5453C43.2105 57.5414 43.2234 57.5453 43.2344 57.5387C43.2421 57.5348 43.2495 57.5303 43.2566 57.5254L43.2902 57.5031C43.3605 57.4699 43.434 57.4406 43.5031 57.4047C43.2004 57.8836 42.5332 58.5605 41.1203 58.8598C40.4042 59.001 39.6726 59.047 38.9445 58.9965ZM34.9016 66.8293L38.0469 64.2047C38.0795 64.1775 38.1024 64.1403 38.112 64.0989C38.1217 64.0575 38.1175 64.0141 38.1003 63.9753C38.083 63.9365 38.0535 63.9043 38.0163 63.8837C37.9791 63.8632 37.9362 63.8553 37.8941 63.8613L35.4723 64.2082C37.2492 63.3098 40.4672 61.4234 41.2773 59.2238C42.1658 59.0642 42.9763 58.6146 43.582 57.9453C43.598 58.1617 43.6211 58.3781 43.6508 58.5961C43.2816 61.1504 41.6387 65.5078 34.9016 66.8293ZM52.225 64.2082L49.8031 63.8613C49.761 63.8553 49.7181 63.8632 49.6809 63.8837C49.6437 63.9043 49.6143 63.9365 49.597 63.9753C49.5797 64.0141 49.5756 64.0575 49.5852 64.0989C49.5949 64.1403 49.6177 64.1775 49.6504 64.2047L52.7949 66.8293C46.8082 65.6531 44.8473 62.0855 44.2238 59.5098C44.1855 59.1585 44.153 58.8057 44.1262 58.4516C44.1351 58.2152 44.1398 58.002 44.141 57.8145C44.7126 58.524 45.5139 59.0118 46.4066 59.1937C47.2023 61.4062 50.4398 63.3059 52.225 64.2082ZM52.2328 57.2879C52.2972 57.2066 52.344 57.1129 52.3703 57.0126C52.3966 56.9123 52.4018 56.8077 52.3856 56.7053C52.3694 56.6029 52.3321 56.5049 52.2761 56.4177C52.22 56.3305 52.1465 56.2558 52.0602 56.1984C50.8176 55.0781 47.2105 55.8203 45.2101 56.3484C46.501 55.7224 47.8375 55.1953 49.2082 54.7719C49.9453 54.4842 50.7538 54.4335 51.5211 54.627C51.8686 54.7341 52.1769 54.9412 52.4076 55.2222C52.6384 55.5033 52.7813 55.8461 52.8187 56.2078C52.867 56.604 52.7994 57.0057 52.624 57.3643C52.4487 57.7229 52.1732 58.0229 51.8309 58.2281C50.927 58.718 49.9178 58.9817 48.8898 58.9965C48.1355 59.0507 47.3773 58.9997 46.6371 58.8449C46.612 58.8328 46.5845 58.8263 46.5566 58.8262C46.1102 58.7476 45.6836 58.5815 45.3015 58.3376C44.9194 58.0937 44.5893 57.7766 44.3301 57.4047C47.1949 58.8887 51.4254 58.3367 52.2328 57.2879ZM44.3812 56.9883C45.8059 56.5664 50.4836 55.3039 51.7992 56.4891C52.0906 56.7512 52.0187 56.9262 51.9238 57.0492C51.268 57.8996 47.1637 58.5312 44.3812 56.9883ZM44.5562 54.1191C45.0547 51.1625 45.7 48.4266 46.9758 46.9844C47.2928 47.346 47.6664 47.6538 48.082 47.8957C48.1519 47.9348 48.2266 47.9656 48.2984 48.002C46.625 49.7477 45.3487 51.8344 44.5562 54.1191Z" fill="#DF57A8"/>
<path d="M29.1973 33.1731C29.364 33.1774 29.5285 33.1338 29.6712 33.0475C29.8139 32.9611 29.9289 32.8357 30.0024 32.6859C30.0764 32.5349 30.1068 32.3663 30.0902 32.1989C30.0735 32.0316 30.0105 31.8722 29.9082 31.7387C29.7574 31.5434 29.3903 31.2477 28.6149 31.3945C28.7766 30.8242 29.2789 30.2125 30.3317 29.827C30.3557 29.8181 30.3779 29.8047 30.3967 29.7873C30.4156 29.7699 30.4309 29.749 30.4417 29.7257C30.4525 29.7025 30.4586 29.6773 30.4596 29.6517C30.4607 29.626 30.4567 29.6005 30.4479 29.5764C30.439 29.5523 30.4256 29.5302 30.4082 29.5113C30.3908 29.4924 30.3699 29.4772 30.3466 29.4664C30.3234 29.4556 30.2982 29.4495 30.2726 29.4484C30.247 29.4473 30.2214 29.4513 30.1973 29.4602C28.8719 29.9457 28.309 30.7731 28.1891 31.5121C27.7997 31.6583 27.4721 31.9333 27.2607 32.2915C27.0493 32.6496 26.9668 33.0693 27.027 33.4809C27.0346 33.5264 27.0582 33.5677 27.0934 33.5976C27.1287 33.6274 27.1734 33.6438 27.2196 33.6438C27.2302 33.6438 27.2407 33.6429 27.2512 33.641C27.3022 33.6327 27.3479 33.6044 27.3781 33.5625C27.4084 33.5205 27.4207 33.4683 27.4125 33.4172C27.3689 33.124 27.4182 32.8246 27.5537 32.561C27.6891 32.2974 27.9038 32.0829 28.1676 31.9477C28.1723 32.0125 28.1801 32.0758 28.1906 32.1371C28.2102 32.4005 28.3217 32.6486 28.5057 32.838C28.6898 33.0274 28.9346 33.146 29.1973 33.1731ZM28.6414 31.7879C28.8033 31.7275 28.9787 31.7134 29.1481 31.7472C29.3176 31.781 29.4742 31.8614 29.6004 31.9793C29.6579 32.0549 29.6931 32.1451 29.7021 32.2396C29.7112 32.3341 29.6937 32.4293 29.6516 32.5145C29.61 32.5984 29.5449 32.6684 29.4643 32.716C29.3836 32.7635 29.2908 32.7866 29.1973 32.7824C28.9059 32.7824 28.6504 32.4891 28.5754 32.0688C28.5601 31.9826 28.5531 31.8953 28.5543 31.8078C28.5817 31.8008 28.6113 31.7941 28.6406 31.7879H28.6414Z" fill="#DF57A8"/>
<path d="M63.0245 40.2066C63.0207 40.1556 62.9978 40.1079 62.9602 40.0732C62.9227 40.0385 62.8733 40.0193 62.8222 40.0195C62.7965 40.0204 62.7713 40.0264 62.7479 40.0371C62.7246 40.0477 62.7036 40.0629 62.6861 40.0817C62.6686 40.1005 62.655 40.1225 62.646 40.1466C62.6371 40.1706 62.6329 40.1962 62.6339 40.2219C62.6409 40.5183 62.5547 40.8094 62.3875 41.0542C62.2203 41.2989 61.9805 41.4851 61.7019 41.5863C61.7054 41.5227 61.7054 41.4589 61.7019 41.3953C61.7152 41.1317 61.6354 40.8718 61.4764 40.661C61.3175 40.4503 61.0895 40.3022 60.8323 40.2426C60.6674 40.2173 60.4986 40.24 60.3463 40.3081C60.1939 40.3761 60.0643 40.4865 59.9729 40.6262C59.8809 40.7669 59.8298 40.9304 59.8256 41.0985C59.8213 41.2666 59.8639 41.4325 59.9487 41.5777C60.0745 41.7883 60.4054 42.1289 61.1894 42.0797C60.9581 42.6266 60.3835 43.1703 59.2917 43.4223C59.245 43.4331 59.204 43.4607 59.1764 43.4999C59.1487 43.539 59.1365 43.5869 59.1419 43.6345C59.1473 43.6821 59.17 43.7261 59.2057 43.758C59.2414 43.79 59.2875 43.8077 59.3354 43.8078C59.3502 43.8078 59.3649 43.8061 59.3792 43.8027C60.7546 43.4855 61.4159 42.7344 61.6269 42.0156C62.0314 41.9191 62.3907 41.6869 62.645 41.3578C62.8993 41.0287 63.0332 40.6225 63.0245 40.2066ZM61.2999 41.6793L61.2112 41.6883C60.7534 41.7273 60.4249 41.6172 60.2831 41.3793C60.2355 41.2971 60.2117 41.2032 60.2145 41.1083C60.2174 41.0133 60.2467 40.921 60.2991 40.8418C60.343 40.7741 60.4036 40.7188 60.475 40.6813C60.5464 40.6437 60.6263 40.6251 60.7069 40.6273C60.7323 40.6273 60.7576 40.629 60.7827 40.6324C61.0722 40.6684 61.2905 40.991 61.3108 41.4172C61.3153 41.5047 61.3116 41.5925 61.2999 41.6793Z" fill="#DF57A8"/>
<path d="M27.3281 40.0304C27.1702 40.0128 27.0104 40.0341 26.8626 40.0924C26.7149 40.1508 26.5836 40.2444 26.4804 40.3652C26.3764 40.2446 26.2447 40.1511 26.0965 40.0928C25.9484 40.0345 25.7883 40.0131 25.63 40.0304C25.4734 40.0661 25.3309 40.1473 25.2204 40.2638C25.1099 40.3803 25.0363 40.5269 25.0089 40.6851C24.9692 40.8628 24.966 41.0466 24.9996 41.2255C25.0332 41.4044 25.1028 41.5746 25.2042 41.7257C25.3492 41.9293 25.5334 42.1019 25.7458 42.2335C25.9583 42.3651 26.1949 42.453 26.4417 42.4921C26.4666 42.4968 26.4922 42.4968 26.5171 42.4921C27.0152 42.4099 27.4603 42.1332 27.7546 41.723C27.8567 41.57 27.9262 41.3976 27.9588 41.2166C27.9915 41.0355 27.9866 40.8497 27.9445 40.6707C27.9161 40.5151 27.8425 40.3714 27.7328 40.2576C27.6232 40.1437 27.4824 40.0647 27.3281 40.0304ZM27.43 41.5082C27.2018 41.8208 26.8618 42.0332 26.4808 42.1011C26.1001 42.0336 25.7601 41.8219 25.5316 41.5101C25.4599 41.4043 25.4102 41.2852 25.3855 41.1599C25.3607 41.0346 25.3614 40.9055 25.3874 40.7804C25.4312 40.6316 25.5206 40.4472 25.6999 40.4148C25.7191 40.4113 25.7386 40.4096 25.7581 40.4097C25.8741 40.4264 25.985 40.4683 26.0829 40.5326C26.1809 40.5969 26.2635 40.6819 26.3249 40.7816C26.3431 40.8059 26.3667 40.8255 26.3938 40.8391C26.421 40.8527 26.4509 40.8597 26.4812 40.8597C26.5115 40.8597 26.5414 40.8527 26.5685 40.8391C26.5956 40.8255 26.6192 40.8059 26.6374 40.7816C26.7002 40.6718 26.7906 40.5803 26.8996 40.5161C27.0086 40.4519 27.1324 40.4173 27.2589 40.4156C27.4378 40.4476 27.5277 40.632 27.5679 40.7671C27.5964 40.8936 27.5989 41.0244 27.5751 41.1518C27.5514 41.2792 27.5021 41.4005 27.43 41.5082Z" fill="#DF57A8"/>
<path d="M57.7103 48.8203C57.5525 48.803 57.3928 48.8244 57.2451 48.8828C57.0974 48.9411 56.9661 49.0346 56.8627 49.1551C56.7588 49.0345 56.6272 48.941 56.4791 48.8827C56.331 48.8243 56.1709 48.8029 56.0127 48.8203C55.8561 48.856 55.7136 48.9372 55.6031 49.0537C55.4925 49.1702 55.419 49.3168 55.3916 49.475C55.352 49.6526 55.3489 49.8365 55.3824 50.0154C55.416 50.1942 55.4856 50.3644 55.5869 50.5156C55.7319 50.7192 55.916 50.8919 56.1285 51.0235C56.341 51.155 56.5775 51.243 56.8244 51.282C56.8373 51.2845 56.8504 51.2857 56.8635 51.2856C56.8766 51.2856 56.8897 51.2845 56.9025 51.282C57.4008 51.1999 57.8461 50.9232 58.1404 50.5129C58.2423 50.3598 58.3117 50.1874 58.3443 50.0064C58.3769 49.8254 58.372 49.6396 58.3299 49.4606C58.3013 49.3046 58.2273 49.1606 58.117 49.0467C58.0068 48.9327 57.8653 48.854 57.7103 48.8203ZM57.8123 50.2981C57.5843 50.6108 57.2441 50.8233 56.8631 50.891C56.4825 50.8235 56.1426 50.6118 55.9142 50.3C55.8426 50.1942 55.7929 50.0751 55.7682 49.9498C55.7434 49.8244 55.7441 49.6954 55.7701 49.5703C55.8139 49.4215 55.9033 49.2371 56.0826 49.2047C56.1018 49.2012 56.1213 49.1995 56.1408 49.1996C56.2568 49.2163 56.3676 49.2582 56.4656 49.3225C56.5635 49.3867 56.6462 49.4718 56.7076 49.5715C56.7258 49.5957 56.7494 49.6154 56.7765 49.629C56.8036 49.6426 56.8335 49.6496 56.8639 49.6496C56.8942 49.6496 56.9241 49.6426 56.9512 49.629C56.9783 49.6154 57.0019 49.5957 57.0201 49.5715C57.0826 49.4613 57.1729 49.3694 57.2821 49.3051C57.3912 49.2408 57.5153 49.2063 57.642 49.2051C57.8209 49.2371 57.9103 49.4215 57.951 49.5566C57.9794 49.6832 57.9818 49.8142 57.9579 49.9416C57.9341 50.0691 57.8845 50.1904 57.8123 50.2981Z" fill="#DF57A8"/>
<path d="M27.143 55.6104H26.6719V55.1416C26.6719 55.0898 26.6513 55.0401 26.6147 55.0035C26.578 54.9669 26.5284 54.9463 26.4766 54.9463C26.4248 54.9463 26.3751 54.9669 26.3385 55.0035C26.3018 55.0401 26.2813 55.0898 26.2813 55.1416V55.6104H25.8125C25.7607 55.6104 25.711 55.6309 25.6744 55.6676C25.6378 55.7042 25.6172 55.7539 25.6172 55.8057C25.6172 55.8575 25.6378 55.9071 25.6744 55.9438C25.711 55.9804 25.7607 56.001 25.8125 56.001H26.2813V56.4721C26.2813 56.5239 26.3018 56.5736 26.3385 56.6102C26.3751 56.6468 26.4248 56.6674 26.4766 56.6674C26.5284 56.6674 26.578 56.6468 26.6147 56.6102C26.6513 56.5736 26.6719 56.5239 26.6719 56.4721V56.001H27.143C27.1948 56.001 27.2444 55.9804 27.2811 55.9438C27.3177 55.9071 27.3383 55.8575 27.3383 55.8057C27.3383 55.7539 27.3177 55.7042 27.2811 55.6676C27.2444 55.6309 27.1948 55.6104 27.143 55.6104Z" fill="#DF57A8"/>
<path d="M61.0781 29.1719H61.5492V29.6434C61.5492 29.6952 61.5698 29.7448 61.6064 29.7815C61.6431 29.8181 61.6927 29.8387 61.7445 29.8387C61.7963 29.8387 61.846 29.8181 61.8826 29.7815C61.9193 29.7448 61.9398 29.6952 61.9398 29.6434V29.1719H62.4086C62.4604 29.1719 62.5101 29.1513 62.5467 29.1147C62.5833 29.078 62.6039 29.0284 62.6039 28.9766C62.6039 28.9248 62.5833 28.8751 62.5467 28.8385C62.5101 28.8018 62.4604 28.7813 62.4086 28.7813H61.9398V28.3105C61.9398 28.2587 61.9193 28.2091 61.8826 28.1724C61.846 28.1358 61.7963 28.1152 61.7445 28.1152C61.6927 28.1152 61.6431 28.1358 61.6064 28.1724C61.5698 28.2091 61.5492 28.2587 61.5492 28.3105V28.7813H61.0781C61.0263 28.7813 60.9766 28.8018 60.94 28.8385C60.9034 28.8751 60.8828 28.9248 60.8828 28.9766C60.8828 29.0284 60.9034 29.078 60.94 29.1147C60.9766 29.1513 61.0263 29.1719 61.0781 29.1719Z" fill="#DF57A8"/>
<path d="M29.3004 58.1445C29.1498 58.1445 29.0027 58.1892 28.8775 58.2728C28.7523 58.3564 28.6547 58.4753 28.5971 58.6144C28.5394 58.7535 28.5243 58.9066 28.5537 59.0542C28.583 59.2019 28.6555 59.3376 28.7619 59.4441C28.8683 59.5506 29.004 59.6231 29.1516 59.6525C29.2993 59.6819 29.4523 59.6669 29.5915 59.6093C29.7306 59.5518 29.8495 59.4543 29.9332 59.3291C30.0169 59.204 30.0616 59.0568 30.0617 58.9062C30.0616 58.7043 29.9814 58.5107 29.8386 58.3679C29.6959 58.2251 29.5023 58.1447 29.3004 58.1445ZM29.3004 59.2773C29.2271 59.2773 29.1554 59.2556 29.0944 59.2148C29.0334 59.1741 28.9859 59.1162 28.9579 59.0484C28.9298 58.9807 28.9225 58.9061 28.9368 58.8342C28.9512 58.7623 28.9865 58.6962 29.0384 58.6444C29.0903 58.5925 29.1564 58.5573 29.2283 58.543C29.3002 58.5288 29.3748 58.5361 29.4425 58.5643C29.5103 58.5924 29.5681 58.64 29.6088 58.701C29.6495 58.762 29.6712 58.8337 29.6711 58.907C29.6706 59.005 29.6313 59.0989 29.5619 59.168C29.4924 59.2372 29.3984 59.2761 29.3004 59.2762V59.2773Z" fill="#DF57A8"/>
<path d="M60.093 33.1676C60.093 33.017 60.0483 32.8698 59.9647 32.7446C59.881 32.6194 59.7621 32.5218 59.623 32.4642C59.4839 32.4066 59.3308 32.3915 59.1831 32.4209C59.0354 32.4503 58.8998 32.5228 58.7933 32.6292C58.6868 32.7357 58.6143 32.8714 58.5849 33.0191C58.5556 33.1667 58.5706 33.3198 58.6283 33.4589C58.6859 33.598 58.7835 33.7169 58.9087 33.8006C59.0339 33.8843 59.1811 33.9289 59.3316 33.9289C59.5335 33.9287 59.727 33.8484 59.8698 33.7057C60.0125 33.563 60.0928 33.3694 60.093 33.1676ZM58.9602 33.1676C58.9602 33.0943 58.9819 33.0226 59.0226 32.9616C59.0634 32.9007 59.1213 32.8532 59.189 32.8251C59.2567 32.797 59.3313 32.7897 59.4032 32.804C59.4751 32.8183 59.5411 32.8536 59.593 32.9055C59.6448 32.9573 59.6801 33.0233 59.6944 33.0953C59.7087 33.1672 59.7014 33.2417 59.6733 33.3094C59.6453 33.3772 59.5978 33.4351 59.5368 33.4758C59.4759 33.5165 59.4042 33.5383 59.3309 33.5383C59.2326 33.5382 59.1383 33.4991 59.0688 33.4296C58.9993 33.3601 58.9603 33.2659 58.9602 33.1676Z" fill="#DF57A8"/>
</svg>
