<svg width="87" height="89" viewBox="0 0 87 89" fill="none" xmlns="http://www.w3.org/2000/svg">
<ellipse cx="43.7178" cy="44.5" rx="41.7178" ry="42.5" fill="white" stroke="#FDD5D5" stroke-width="3" stroke-linejoin="round" stroke-dasharray="4 4"/>
<g clip-path="url(#clip0_1359_611)">
<path d="M26 49.2173C26 59.0223 33.8483 67 43.5 67C45.7986 67.0016 48.0749 66.5428 50.1988 65.6497C52.3227 64.7566 54.2525 63.4467 55.8779 61.7951C57.5032 60.1436 58.7922 58.1826 59.6711 56.0243C60.55 53.8661 61.0016 51.553 61 49.2173C60.9998 49.0219 60.9233 48.8347 60.7874 48.6965C60.6514 48.5584 60.4671 48.4807 60.2749 48.4805H26.7251C26.5329 48.4807 26.3486 48.5584 26.2126 48.6965C26.0767 48.8347 26.0002 49.0219 26 49.2173ZM59.5336 49.9541C59.4848 51.0599 59.3256 52.1578 59.0584 53.2309H27.9433C27.6746 52.158 27.5148 51.0601 27.4664 49.9541H59.5336ZM28.1062 53.8377H58.8946C57.9134 57.2131 55.8838 60.1754 53.1092 62.2821C50.3345 64.3888 46.9637 65.5269 43.5 65.5264C36.2284 65.5264 30.0717 60.587 28.1062 53.8377Z" fill="#F32C2C"/>
<path d="M48.5443 62.2585C50.1808 61.5415 51.6355 60.456 52.7986 59.0841C52.8503 59.0231 52.9238 58.9854 53.0028 58.9794C53.0818 58.9733 53.16 58.9995 53.2201 59.052C53.2801 59.1046 53.3172 59.1792 53.3231 59.2595C53.329 59.3398 53.3033 59.4192 53.2516 59.4802C52.0275 60.9221 50.4973 62.0629 48.7764 62.8168C48.7391 62.8328 48.6991 62.841 48.6587 62.8411C48.5898 62.8412 48.523 62.8172 48.4695 62.773C48.4161 62.7288 48.3793 62.6673 48.3655 62.5987C48.3516 62.5301 48.3615 62.4588 48.3935 62.3968C48.4255 62.3348 48.4776 62.286 48.5409 62.2585H48.5443Z" fill="#F32C2C"/>
<path d="M58.2855 32.5497C59.6888 31.0439 59.3296 28.8222 59.3134 28.7355C59.2915 28.6072 59.2366 28.4871 59.1542 28.3874C59.0718 28.2877 58.9648 28.2119 58.8442 28.1679C58.7236 28.1238 58.5937 28.113 58.4677 28.1366C58.3417 28.1602 58.224 28.2173 58.1268 28.3021L54.9431 31.0769L55.9079 26.2155C55.9337 26.0859 55.9246 25.9515 55.8816 25.8266C55.8387 25.7018 55.7634 25.5909 55.6637 25.5058C55.5641 25.4207 55.4437 25.3644 55.3153 25.3428C55.1868 25.3213 55.055 25.3353 54.9337 25.3833C54.8382 25.4206 52.5767 26.3369 51.948 28.5292C51.6596 29.5295 51.7586 30.6044 52.2397 31.7366C51.6184 31.6376 50.9831 31.6848 50.3826 31.8744C49.3358 32.2211 48.534 33.0221 47.9999 34.2522C47.8376 34.6373 47.6994 35.0325 47.5862 35.4354C47.5862 35.4441 47.5811 35.4536 47.5785 35.4623C46.7809 38.2311 46.3219 42.8739 46.4089 45.315C46.4215 45.7164 46.5459 46.106 46.7676 46.4384C46.9892 46.7709 47.2991 47.0327 47.6613 47.1935C47.9299 47.3147 48.2204 47.3776 48.5143 47.3781C49.0113 47.3776 49.4919 47.1972 49.8699 46.8693C50.9712 45.921 52.4828 44.3268 53.8162 42.7084C54.8493 41.4532 55.6981 40.2812 56.2705 39.319C56.4836 38.9675 56.6745 38.6027 56.8421 38.2267C57.3769 36.9975 57.4187 35.8567 56.9666 34.8364C56.7754 34.4126 56.512 34.0264 56.1886 33.6957C57.0494 33.5049 57.7506 33.1235 58.2855 32.5497ZM53.4554 33.6766L53.4775 33.6878L53.5031 33.7009L53.5262 33.7121H53.533L53.5492 33.7182L53.5782 33.7295L53.5936 33.7355C53.6226 33.7451 55.1291 34.2608 55.6486 35.4476C55.925 36.0778 55.8824 36.7921 55.5172 37.6312C55.4114 37.8686 55.2932 38.1 55.1632 38.3247L53.9561 37.6702C53.9215 37.65 53.8832 37.6371 53.8435 37.6323C53.8039 37.6274 53.7637 37.6307 53.7253 37.6419C53.6869 37.6531 53.6511 37.672 53.62 37.6975C53.589 37.723 53.5633 37.7546 53.5444 37.7904C53.5256 37.8262 53.514 37.8654 53.5104 37.9058C53.5068 37.9463 53.5111 37.987 53.5233 38.0257C53.5354 38.0643 53.555 38.1001 53.581 38.1309C53.607 38.1618 53.6388 38.187 53.6746 38.205L54.8527 38.8439C54.218 39.8287 53.5246 40.773 52.7763 41.6716L50.4551 40.5854C50.3831 40.5518 50.301 40.5485 50.2267 40.5764C50.1523 40.6043 50.092 40.661 50.0588 40.7341C50.0257 40.8072 50.0225 40.8907 50.0499 40.9662C50.0774 41.0417 50.1332 41.1031 50.2051 41.1368L52.3771 42.1579C51.1828 43.577 49.8878 44.9267 48.934 45.7476C48.8405 45.8285 48.7264 45.881 48.6048 45.899C48.4832 45.917 48.3591 45.8998 48.2467 45.8494C48.1343 45.799 48.0381 45.7174 47.9693 45.614C47.9005 45.5106 47.8617 45.3895 47.8575 45.2647C47.7781 43.0465 48.1705 38.9254 48.865 36.2633L51.1811 37.32C51.2194 37.3377 51.261 37.3469 51.303 37.3469C51.3713 37.3469 51.4375 37.3231 51.4906 37.2795C51.5438 37.2359 51.5806 37.1751 51.5949 37.1073C51.6093 37.0395 51.6003 36.9687 51.5696 36.9068C51.5388 36.8448 51.4881 36.7955 51.4259 36.7669L49.0304 35.6738C49.1136 35.3952 49.2118 35.1214 49.3248 34.8538C49.6899 34.0147 50.1778 33.5015 50.8245 33.2848C52.0444 32.8713 53.4408 33.6627 53.4554 33.6722V33.6766ZM54.1446 27.651L53.4878 30.9572C53.2165 30.2274 53.1645 29.5581 53.3351 28.9557C53.4873 28.4548 53.7665 28.0033 54.1446 27.6467V27.651ZM57.7736 30.5533C57.6709 30.9228 57.4832 31.2621 57.2259 31.5432C56.8847 31.9091 56.409 32.1521 55.7988 32.2723L57.7736 30.5533Z" fill="#F32C2C"/>
<path d="M39.1272 36.1426C38.0558 33.4554 35.6245 31.6861 33.1463 31.6861H33.0772C33.0695 31.6653 33.061 31.6436 33.0525 31.6228C32.5654 30.4118 31.0947 29.8709 29.7681 30.417C29.1575 30.6617 28.6533 31.1205 28.3469 31.7104C28.1937 31.9988 28.1046 32.3179 28.0859 32.6452C28.0672 32.9724 28.1193 33.2999 28.2386 33.6045C28.3379 33.8547 28.4825 34.0838 28.6651 34.2797C27.5996 36.0577 27.4469 38.4554 28.3 40.6017C29.3723 43.289 31.7703 45.0548 34.2613 45.0591C34.6486 45.7067 35.3762 46.082 36.1628 46.082C36.4963 46.0815 36.8266 46.0152 37.1353 45.887C38.3535 45.3859 38.9822 44.0666 38.5369 42.9535C38.5241 42.9232 38.5113 42.8928 38.4976 42.8625C39.8046 41.0534 40.0605 38.4823 39.1272 36.1426ZM37.0585 42.325C36.9339 42.4641 36.8665 42.6464 36.8702 42.8344C36.8738 43.0224 36.9483 43.2018 37.0781 43.3358C37.1266 43.3854 37.1649 43.4444 37.1907 43.5092C37.3332 43.8655 37.0577 44.3301 36.5936 44.5234C36.1295 44.7167 35.6083 44.578 35.4658 44.2209C35.4563 44.194 35.4486 44.1665 35.4428 44.1385C35.404 43.9627 35.3032 43.8075 35.1593 43.7022C35.0155 43.5969 34.8386 43.5489 34.6622 43.5673C32.6148 43.7779 30.5564 42.3311 29.647 40.0504C28.8792 38.1295 29.1113 35.9831 30.2348 34.5831C30.3046 34.4962 30.3539 34.3942 30.379 34.2849C30.4041 34.1756 30.4044 34.062 30.3797 33.9526C30.355 33.8432 30.306 33.741 30.2366 33.6538C30.1671 33.5666 30.079 33.4966 29.9788 33.4493C29.8031 33.3725 29.6627 33.2305 29.5864 33.0523C29.5483 32.9439 29.5333 32.8286 29.5426 32.7139C29.5519 32.5993 29.5851 32.4879 29.6402 32.3874C29.7869 32.109 30.0273 31.8937 30.3175 31.7806C30.8925 31.5431 31.5306 31.7234 31.7106 32.1733C31.7448 32.2621 31.7607 32.3571 31.7575 32.4524C31.7547 32.56 31.7751 32.6669 31.8174 32.7656C31.8596 32.8643 31.9227 32.9524 32.0021 33.0236C32.0814 33.0949 32.1752 33.1475 32.2768 33.178C32.3784 33.2084 32.4854 33.2158 32.5901 33.1996C32.7787 33.1705 32.9692 33.156 33.16 33.1563C35.0555 33.1563 36.9382 34.5641 37.7879 36.6931C38.5898 38.7181 38.3049 40.9277 37.0585 42.325Z" fill="#F32C2C"/>
<path d="M36.1551 41.3631C36.1144 41.3838 36.0694 41.3945 36.0238 41.3943C35.9565 41.394 35.8913 41.3706 35.8387 41.3279C35.7861 41.2852 35.7493 41.2257 35.7342 41.159C35.7191 41.0924 35.7266 41.0225 35.7554 40.9608C35.7843 40.899 35.8329 40.8489 35.8933 40.8187C36.2969 40.6162 36.6051 40.2593 36.7502 39.8262C36.8952 39.3931 36.8653 38.9193 36.667 38.5085C36.6337 38.4364 36.6296 38.3539 36.6556 38.2787C36.6817 38.2036 36.7358 38.1419 36.8063 38.1069C36.8768 38.072 36.9579 38.0666 37.0323 38.0919C37.1066 38.1173 37.1681 38.1714 37.2036 38.2424C37.336 38.5177 37.4138 38.8168 37.4324 39.1227C37.4511 39.4285 37.4102 39.7351 37.3122 40.0249C37.2142 40.3147 37.061 40.5821 36.8613 40.8117C36.6616 41.0413 36.4193 41.2287 36.1483 41.3631H36.1551Z" fill="#F32C2C"/>
<path d="M42.8203 45.9489C42.8201 46.2259 42.9008 46.4967 43.0521 46.727C43.2035 46.9574 43.4186 47.137 43.6704 47.243C43.9222 47.3491 44.1993 47.3769 44.4666 47.3229C44.7339 47.2689 44.9795 47.1356 45.1722 46.9397C45.365 46.7439 45.4962 46.4943 45.5493 46.2227C45.6024 45.951 45.5751 45.6695 45.4707 45.4136C45.3663 45.1578 45.1896 44.9391 44.9629 44.7854C44.7362 44.6316 44.4697 44.5496 44.1972 44.5498C43.8322 44.5505 43.4824 44.6981 43.2243 44.9604C42.9663 45.2226 42.821 45.5781 42.8203 45.9489ZM43.4175 45.9489C43.4175 45.792 43.4633 45.6386 43.5491 45.5082C43.6349 45.3777 43.7568 45.276 43.8995 45.216C44.0422 45.156 44.1992 45.1404 44.3506 45.171C44.5021 45.2017 44.6411 45.2773 44.7503 45.3884C44.8594 45.4994 44.9337 45.6408 44.9637 45.7947C44.9937 45.9486 44.9781 46.1081 44.9189 46.2531C44.8597 46.398 44.7595 46.5218 44.6311 46.6088C44.5026 46.6959 44.3516 46.7423 44.1972 46.7421C43.9903 46.7419 43.792 46.6582 43.6458 46.5095C43.4996 46.3607 43.4175 46.1591 43.4175 45.9489Z" fill="#F32C2C"/>
<path d="M37.2491 28.1144C37.2491 27.7911 37.1547 27.4751 36.978 27.2063C36.8013 26.9374 36.5501 26.7279 36.2562 26.6041C35.9624 26.4803 35.6389 26.4478 35.3269 26.5108C35.0148 26.5737 34.7282 26.7293 34.5031 26.9577C34.278 27.1862 34.1246 27.4773 34.0624 27.7944C34.0001 28.1114 34.0317 28.4401 34.1532 28.7388C34.2747 29.0376 34.4807 29.2931 34.7451 29.4729C35.0094 29.6528 35.3203 29.7489 35.6384 29.7493C36.0653 29.7493 36.4747 29.5771 36.7767 29.2705C37.0787 28.964 37.2486 28.5481 37.2491 28.1144ZM36.6519 28.1144C36.6521 28.3177 36.5929 28.5165 36.4819 28.6856C36.3709 28.8548 36.2131 28.9867 36.0283 29.0647C35.8436 29.1427 35.6402 29.1633 35.4439 29.1238C35.2477 29.0844 35.0673 28.9867 34.9256 28.8431C34.784 28.6996 34.6874 28.5165 34.6481 28.3172C34.6088 28.1179 34.6286 27.9112 34.7048 27.7232C34.7811 27.5353 34.9106 27.3745 35.0767 27.2613C35.2429 27.1481 35.4384 27.0875 35.6384 27.0872C35.9069 27.0869 36.1644 27.195 36.3544 27.3876C36.5444 27.5802 36.6514 27.8416 36.6519 28.1144Z" fill="#F32C2C"/>
<path d="M60.4938 41.643C60.4939 41.2941 60.3922 40.953 60.2016 40.6629C60.0109 40.3728 59.7398 40.1466 59.4226 40.0131C59.1054 39.8796 58.7564 39.8447 58.4197 39.9129C58.0829 39.981 57.7737 40.1491 57.5311 40.3959C57.2884 40.6428 57.1233 40.9572 57.0565 41.2994C56.9898 41.6416 57.0245 41.9963 57.1562 42.3184C57.2879 42.6406 57.5107 42.9159 57.7964 43.1093C58.0821 43.3028 58.4178 43.4058 58.7612 43.4053C59.2206 43.4041 59.6609 43.218 59.9856 42.8877C60.3104 42.5574 60.4931 42.1098 60.4938 41.643ZM59.8966 41.643C59.8966 41.8718 59.8298 42.0955 59.7046 42.2857C59.5795 42.4759 59.4016 42.6241 59.1935 42.7116C58.9854 42.799 58.7565 42.8218 58.5356 42.7769C58.3148 42.7321 58.112 42.6217 57.953 42.4597C57.7939 42.2977 57.6858 42.0915 57.6421 41.867C57.5985 41.6425 57.6214 41.4099 57.708 41.1986C57.7945 40.9874 57.9407 40.8069 58.1282 40.6802C58.3157 40.5534 58.536 40.4861 58.7612 40.4866C59.0625 40.4875 59.3511 40.6097 59.5639 40.8264C59.7768 41.0432 59.8964 41.3368 59.8966 41.643Z" fill="#F32C2C"/>
<path d="M28.1719 45.3465C28.1717 45.5408 28.2282 45.7308 28.3344 45.8924C28.4405 46.054 28.5913 46.1801 28.7679 46.2545C28.9445 46.329 29.1389 46.3486 29.3264 46.3108C29.514 46.273 29.6863 46.1795 29.8216 46.0422C29.9568 45.9049 30.0489 45.7299 30.0863 45.5393C30.1237 45.3488 30.1046 45.1512 30.0315 44.9717C29.9583 44.7922 29.8344 44.6388 29.6755 44.5308C29.5165 44.4229 29.3296 44.3652 29.1384 44.3652C28.8823 44.3655 28.6367 44.4689 28.4555 44.6528C28.2743 44.8368 28.1723 45.0863 28.1719 45.3465ZM28.769 45.3465C28.769 45.2723 28.7907 45.1997 28.8313 45.138C28.8719 45.0763 28.9296 45.0281 28.9971 44.9997C29.0645 44.9713 29.1388 44.9639 29.2105 44.9784C29.2821 44.9929 29.3479 45.0286 29.3996 45.0811C29.4513 45.1336 29.4864 45.2005 29.5007 45.2733C29.5149 45.3461 29.5076 45.4216 29.4797 45.4902C29.4517 45.5587 29.4044 45.6174 29.3436 45.6586C29.2829 45.6999 29.2115 45.7219 29.1384 45.7219C29.0404 45.7219 28.9465 45.6823 28.8772 45.6119C28.8079 45.5415 28.769 45.4461 28.769 45.3465Z" fill="#F32C2C"/>
<path d="M50.1753 25.8435C50.1753 25.6492 50.1185 25.4593 50.0123 25.2977C49.9061 25.1362 49.7551 25.0103 49.5784 24.936C49.4017 24.8617 49.2074 24.8423 49.0198 24.8803C48.8323 24.9182 48.6601 25.0119 48.525 25.1493C48.3898 25.2867 48.2979 25.4618 48.2607 25.6524C48.2235 25.843 48.2427 26.0405 48.316 26.2199C48.3893 26.3994 48.5133 26.5527 48.6724 26.6605C48.8314 26.7683 49.0184 26.8258 49.2096 26.8256C49.4657 26.8252 49.7112 26.7215 49.8922 26.5374C50.0732 26.3533 50.175 26.1037 50.1753 25.8435ZM49.5781 25.8435C49.5781 25.9178 49.5564 25.9904 49.5158 26.0521C49.4752 26.1138 49.4174 26.162 49.3499 26.1903C49.2823 26.2187 49.208 26.2261 49.1363 26.2116C49.0647 26.197 48.9989 26.1612 48.9472 26.1086C48.8956 26.056 48.8605 25.989 48.8463 25.9162C48.8322 25.8433 48.8396 25.7678 48.8677 25.6992C48.8958 25.6307 48.9433 25.5721 49.0041 25.531C49.065 25.4898 49.1365 25.468 49.2096 25.4681C49.3074 25.4684 49.4011 25.508 49.4702 25.5784C49.5393 25.6487 49.5781 25.7441 49.5781 25.8435Z" fill="#F32C2C"/>
<path d="M44.3977 36.5416C45.7097 34.7784 47.142 32.0695 46.4775 29.1829C45.9264 26.7695 44.0146 24.716 40.7977 23.0785C40.7111 23.0346 40.6167 23.0088 40.5201 23.0025C40.4236 22.9962 40.3267 23.0096 40.2353 23.0419C40.1439 23.0742 40.0598 23.1248 39.9879 23.1906C39.916 23.2564 39.8578 23.3362 39.8167 23.4252C38.8783 25.4536 38.0508 27.4587 38.2811 29.6822C38.5422 32.229 40.1818 34.5695 43.2938 36.8381C43.353 36.8812 43.4183 36.9148 43.4874 36.9378C43.3834 38.5484 43.0703 39.9267 42.5704 40.9583C42.553 40.994 42.5427 41.0329 42.5401 41.0727C42.5375 41.1125 42.5427 41.1524 42.5553 41.1901C42.5679 41.2279 42.5877 41.2627 42.6135 41.2927C42.6394 41.3227 42.6708 41.3472 42.706 41.3648C42.7473 41.3852 42.7924 41.3958 42.8383 41.396C42.894 41.396 42.9485 41.3801 42.9959 41.3503C43.0432 41.3204 43.0814 41.2777 43.1061 41.227C43.6512 40.1001 43.9882 38.6065 44.0914 36.8693C44.1678 36.8228 44.2349 36.7623 44.2893 36.6907C44.3252 36.6439 44.3627 36.5945 44.4002 36.5434L44.3977 36.5416ZM44.0786 34.3814C43.9447 32.2758 43.5045 30.1954 42.8511 28.6827C42.8358 28.6455 42.8134 28.6118 42.7851 28.5835C42.7569 28.5552 42.7234 28.5329 42.6866 28.5179C42.6498 28.5029 42.6104 28.4955 42.5707 28.4961C42.5311 28.4968 42.4919 28.5054 42.4556 28.5216C42.4193 28.5378 42.3865 28.5612 42.3592 28.5904C42.3318 28.6196 42.3105 28.654 42.2964 28.6917C42.2823 28.7294 42.2757 28.7695 42.2771 28.8098C42.2784 28.8501 42.2877 28.8897 42.3042 28.9263C43.0089 30.5594 43.455 32.8844 43.5173 35.1677C41.1637 33.3161 39.9199 31.4679 39.7211 29.5279C39.5565 27.9173 40.1041 26.343 40.8105 24.7506C43.2221 26.109 44.6536 27.7101 45.0673 29.5183C45.4683 31.2642 44.8754 32.9901 44.0786 34.3814Z" fill="#F32C2C"/>
</g>
<defs>
<clipPath id="clip0_1359_611">
<rect width="35" height="44" fill="white" transform="translate(26 23)"/>
</clipPath>
</defs>
</svg>
