<svg width="87" height="89" viewBox="0 0 87 89" fill="none" xmlns="http://www.w3.org/2000/svg">
<ellipse cx="43.7178" cy="44.5" rx="41.7178" ry="42.5" fill="white" stroke="#FFEFCE" stroke-width="3" stroke-linejoin="round" stroke-dasharray="4 4"/>
<path d="M41.7848 67.2172C39.5998 67.2172 37.3863 67.1606 35.2063 67.0493C33.1636 66.9447 31.0369 66.7305 29.4524 65.3869C27.5897 63.8066 27.1543 61.2566 26.9608 58.7362C26.5751 53.6974 26.61 48.5902 27.0632 43.5561C27.276 41.1989 27.6132 38.4397 28.5076 35.8477C29.4652 33.0715 30.9807 30.7858 32.8889 29.2376C35.4902 27.1266 39.0398 26.1006 43.7407 26.1006C44.5205 26.1006 45.3202 26.1276 46.1861 26.1831C48.9253 26.3589 52.0538 26.7829 54.4956 28.5933C57.9798 31.1768 59.0549 35.7698 59.6028 39.4824C60.6579 46.6351 60.6472 53.8873 59.5707 61.0372C59.3537 62.4822 59.025 64.1158 57.8653 65.2108C56.7027 66.309 55.0769 66.5402 53.5109 66.6832C49.6297 67.0375 45.6845 67.2172 41.7848 67.2172ZM43.7407 27.1934C39.3009 27.1934 35.9768 28.1397 33.5777 30.0864C31.8274 31.5055 30.4314 33.6211 29.5406 36.2042C28.6847 38.6855 28.3581 41.3625 28.1518 43.6542C27.7036 48.628 27.6694 53.6742 28.0508 58.6529C28.2258 60.9368 28.6022 63.2325 30.1596 64.5537C31.483 65.6765 33.4062 65.8629 35.2618 65.9579C41.2832 66.2663 47.4077 66.1432 53.4113 65.5946C54.7866 65.4694 56.2061 65.2752 57.1154 64.416C58.0218 63.5605 58.2915 62.1972 58.4907 60.8746C59.5501 53.8315 59.5608 46.6877 58.5213 39.6418C58.0047 36.138 57.0065 31.8153 53.8453 29.4713C51.6312 27.8299 48.6955 27.4393 46.1164 27.2738C45.2739 27.2198 44.497 27.1934 43.7407 27.1934Z" fill="#FAB31C"/>
<path d="M54.8503 38.9218C54.5557 38.9218 54.3131 38.6881 54.3038 38.3925C54.212 35.4373 52.2533 32.5539 49.5396 31.3803C47.7723 30.6155 45.7865 30.5251 44.0775 30.5319C40.8886 30.55 38.626 30.9922 36.7406 31.9652C34.4026 33.1722 32.7989 35.3675 32.6537 37.5575C32.6345 37.8585 32.3826 38.0858 32.0724 38.067C31.7715 38.047 31.5438 37.7866 31.5637 37.4857C31.7352 34.882 33.5274 32.3946 36.2397 30.994C38.2852 29.9381 40.7007 29.4582 44.0718 29.439C45.9032 29.4298 48.0206 29.5322 49.9737 30.3771C53.1114 31.7343 55.2907 34.9417 55.3967 38.3583C55.4059 38.66 55.169 38.9122 54.8673 38.9215C54.8616 38.9218 54.8559 38.9218 54.8503 38.9218Z" fill="#FAB31C"/>
<path d="M36.2262 62.9848C34.6702 62.9848 33.1091 62.8179 32.2297 61.6069C31.6449 60.8022 31.5951 59.762 31.5588 59.0022L31.0764 48.885C31.0131 47.5517 30.9341 45.8925 31.7303 44.5069C32.515 43.1419 33.9587 42.3838 35.1284 41.8754C39.3347 40.0493 44.2512 39.547 48.74 40.4873C51.6571 41.0981 53.6849 42.2884 54.7664 44.0252C55.9795 45.9736 55.8806 48.3856 55.8009 50.3237L55.3982 60.2199C55.379 60.7076 55.3519 61.3764 54.9798 61.9261C54.2825 62.9577 52.8489 62.9602 52.1601 62.9613L36.2262 62.9848ZM44.148 41.1073C41.1988 41.1073 38.2305 41.7196 35.5638 42.8779C34.5485 43.319 33.3027 43.9647 32.678 45.0515C32.0412 46.1597 32.1116 47.6421 32.1678 48.8331L32.6502 58.9502C32.6815 59.6066 32.7207 60.4241 33.1134 60.9645C33.7054 61.7795 34.9597 61.8919 36.2262 61.8919V62.4383L36.2596 61.8919L52.1587 61.8684C52.9599 61.867 53.7468 61.799 54.0748 61.3142C54.2576 61.0431 54.2868 60.655 54.3067 60.1754L54.7094 50.2792C54.7991 48.0832 54.7955 46.1401 53.8386 44.6029C52.9207 43.129 51.1299 42.1041 48.5166 41.5566C47.0922 41.2585 45.6229 41.1073 44.148 41.1073Z" fill="#FAB31C"/>
<path d="M49.6335 47.3857C49.6313 47.3857 49.6292 47.3857 49.627 47.3857L37.4854 47.2413C37.1837 47.2377 36.9418 46.9901 36.9454 46.6885C36.9489 46.3889 37.193 46.1484 37.4918 46.1484C37.4939 46.1484 37.496 46.1484 37.4982 46.1484L49.6399 46.2929C49.9415 46.2964 50.1834 46.544 50.1799 46.8457C50.1763 47.1452 49.9323 47.3857 49.6335 47.3857Z" fill="#FAB31C"/>
<path d="M47.8244 49.6004C47.5292 49.6004 47.2866 49.3656 47.278 49.0692L47.2268 47.2475C47.2182 46.9458 47.4559 46.6943 47.7576 46.6861C48.0856 46.6626 48.3111 46.9155 48.3196 47.2169L48.3709 49.0386C48.3794 49.3403 48.1418 49.5918 47.8401 49.6C47.8344 49.6004 47.8294 49.6004 47.8244 49.6004Z" fill="#FAB31C"/>
<path d="M60.556 61.2286C60.0693 61.2286 59.5919 61.1746 59.1259 61.1219C58.8256 61.0881 58.61 60.8178 58.6442 60.5179C58.6776 60.2172 58.9523 59.9999 59.2482 60.0362C59.8865 60.108 60.5467 60.1817 61.1586 60.0967C61.7833 60.0095 62.2934 59.7551 62.5951 59.3805C63.0932 58.763 63.0747 57.8248 63.0092 56.8362L62.8128 53.8846C62.7438 52.8483 62.672 51.7764 62.2194 50.876C61.853 50.1475 61.0497 49.4071 60.1461 49.4868C59.8509 49.5139 59.5791 49.2944 59.5506 48.9941C59.5229 48.6939 59.7434 48.4271 60.0437 48.399C61.4688 48.268 62.6499 49.3001 63.1956 50.3851C63.7477 51.4829 63.8303 52.7202 63.9028 53.812L64.0992 56.7637C64.1768 57.9284 64.191 59.1425 63.4461 60.0664C62.9694 60.6584 62.2102 61.0533 61.3102 61.1788C61.0562 61.2144 60.805 61.2286 60.556 61.2286Z" fill="#FAB31C"/>
<path d="M26.5772 61.2892C26.4527 61.2892 26.3267 61.2789 26.1994 61.2579C25.4758 61.1401 24.7856 60.7068 24.3531 60.0996C23.6622 59.1266 23.5505 57.9053 23.4608 56.9242C23.3178 55.3489 23.1698 53.7207 23.5242 52.1066C23.9326 50.2439 25.0311 48.7356 26.4619 48.0717C26.7309 47.9444 27.0596 48.0625 27.1877 48.3375C27.3143 48.611 27.1955 48.9358 26.9216 49.0628C25.7988 49.584 24.9272 50.8096 24.5914 52.3407C24.2734 53.79 24.4135 55.3329 24.5494 56.8249C24.6313 57.7196 24.7237 58.7338 25.2438 59.466C25.5021 59.8296 25.9468 60.1095 26.3751 60.1796C26.5786 60.2138 26.8767 60.2141 27.1307 60.0288C27.3762 59.8495 27.7177 59.9053 27.8942 60.149C28.072 60.3931 28.018 60.7349 27.7739 60.9124C27.4338 61.16 27.0183 61.2892 26.5772 61.2892Z" fill="#FAB31C"/>
<path d="M38.667 27.447C38.4272 27.447 38.2081 27.2887 38.1405 27.0471C37.6574 25.3114 38.8498 23.5508 40.2821 22.8514C41.5329 22.2403 43.1359 22.167 44.921 22.6394C46.1163 22.9564 47.0086 23.4174 47.6489 24.0489C48.5539 24.9425 48.8663 25.9091 48.5767 26.9219C48.4942 27.2111 48.1975 27.3815 47.9015 27.2972C47.6112 27.2143 47.4433 26.9119 47.5265 26.6217C47.6368 26.2339 47.6909 25.6256 46.8812 24.8269C46.3732 24.326 45.661 23.9667 44.6407 23.696C43.577 23.4139 42.0395 23.2093 40.7616 23.8333C39.7534 24.326 38.8676 25.5825 39.1935 26.754C39.2746 27.0446 39.1046 27.346 38.8136 27.4271C38.7645 27.4406 38.7154 27.447 38.667 27.447Z" fill="#FAB31C"/>
<path d="M26.0555 58.3895C25.8299 58.3895 25.6186 58.2486 25.5396 58.0235C24.9448 56.3216 24.7869 54.4816 25.0828 52.7022C25.1326 52.4041 25.4116 52.2024 25.7118 52.2529C26.0092 52.3023 26.2106 52.5837 26.1615 52.8815C25.8954 54.4806 26.037 56.1337 26.5713 57.6627C26.6709 57.9477 26.5208 58.2593 26.2355 58.3589C26.1764 58.3799 26.1152 58.3895 26.0555 58.3895Z" fill="#FAB31C"/>
<path d="M61.3158 58.6506C61.293 58.6506 61.2703 58.6492 61.2468 58.6464C60.948 58.609 60.7352 58.3358 60.7729 58.0363C61.0298 55.9875 61.0084 53.9131 60.7089 51.8708C60.6655 51.572 60.8718 51.2945 61.1707 51.2507C61.4638 51.208 61.747 51.4137 61.7904 51.7121C62.1034 53.8523 62.1262 56.0256 61.8572 58.1722C61.8224 58.4486 61.5876 58.6506 61.3158 58.6506Z" fill="#FAB31C"/>
<path d="M34.1011 62.4426C33.9595 62.4426 33.8187 62.3881 33.7119 62.2796C33.4999 62.0644 33.5028 61.7182 33.7176 61.5066C34.3438 60.8908 34.8802 60.1924 35.3128 59.4319C35.4622 59.17 35.7959 59.0772 36.0585 59.2269C36.3203 59.376 36.4121 59.7097 36.2634 59.9719C35.7803 60.8203 35.1819 61.5987 34.4846 62.2857C34.3779 62.3903 34.2399 62.4426 34.1011 62.4426Z" fill="#FAB31C"/>
<path d="M37.2965 62.7972C37.1528 62.7972 37.0098 62.741 36.9024 62.6296C36.6932 62.4119 36.7003 62.0661 36.918 61.857C37.4837 61.3127 37.9497 60.6446 38.2663 59.9242C38.3873 59.6474 38.7103 59.5229 38.9863 59.6439C39.2624 59.7652 39.3883 60.0875 39.2667 60.3639C38.8938 61.2134 38.3432 62.0025 37.6751 62.6446C37.569 62.7467 37.4331 62.7972 37.2965 62.7972Z" fill="#FAB31C"/>
<path d="M40.6088 62.8511C40.4744 62.8511 40.3399 62.802 40.2346 62.7027C40.0147 62.496 40.0041 62.1503 40.2111 61.9304C40.9119 61.1851 41.5501 60.3726 42.1079 59.5152C42.273 59.263 42.6117 59.1897 42.8643 59.3555C43.1176 59.5202 43.1887 59.8585 43.0244 60.1115C42.4303 61.0229 41.7522 61.8867 41.0066 62.6789C40.8991 62.7935 40.754 62.8511 40.6088 62.8511Z" fill="#FAB31C"/>
<path d="M43.9614 62.8128C43.7999 62.8128 43.6398 62.7417 43.5317 62.6051C43.3446 62.3682 43.3851 62.0245 43.622 61.8374C44.3015 61.3013 44.8373 60.5581 45.1311 59.7449C45.2336 59.4603 45.5481 59.3144 45.8305 59.4162C46.1144 59.5186 46.261 59.832 46.1585 60.1156C45.7914 61.133 45.1489 62.0249 44.2994 62.6954C44.1991 62.7744 44.0795 62.8128 43.9614 62.8128Z" fill="#FAB31C"/>
<path d="M47.8668 62.7064C47.7237 62.7064 47.58 62.6502 47.4733 62.5388C47.2634 62.3211 47.2705 61.9753 47.4882 61.7661C48.0539 61.2218 48.4623 60.5007 48.6387 59.7352C48.7056 59.441 48.9987 59.2553 49.2933 59.3254C49.5879 59.3929 49.7714 59.6864 49.7031 59.9806C49.4804 60.9504 48.9625 61.8643 48.2453 62.5538C48.1393 62.6559 48.0034 62.7064 47.8668 62.7064Z" fill="#FAB31C"/>
<path d="M51.1785 62.7027C51.0775 62.7027 50.9743 62.6745 50.8825 62.6151C50.6292 62.4515 50.5567 62.1135 50.7203 61.8599C51.1287 61.2274 51.4674 60.5497 51.7264 59.8456C51.8317 59.5628 52.1447 59.418 52.4286 59.5219C52.7118 59.6261 52.8562 59.9403 52.7523 60.2234C52.4649 61.0029 52.0899 61.7528 51.6381 62.4526C51.5335 62.6144 51.3578 62.7027 51.1785 62.7027Z" fill="#FAB31C"/>
</svg>
