<svg width="87" height="89" viewBox="0 0 87 89" fill="none" xmlns="http://www.w3.org/2000/svg">
<ellipse cx="43.7178" cy="44.5" rx="41.7178" ry="42.5" fill="white" stroke="#0FBAF4" stroke-opacity="0.36" stroke-width="3" stroke-linejoin="round" stroke-dasharray="4 4"/>
<path d="M59.0816 25.64H59.9016V24H31.2016C28.9056 24 27.1016 25.804 27.1016 28.1V60.08C27.1016 62.868 29.2335 65 32.0216 65H59.9016V30.56H59.0816C57.7696 30.56 56.6216 29.412 56.6216 28.1C56.6216 26.788 57.7696 25.64 59.0816 25.64ZM31.2016 25.64H55.8016C55.8016 25.64 54.9816 26.788 54.9816 28.1C54.9816 29.412 55.8016 30.56 55.8016 30.56H31.2016C29.8896 30.56 28.7416 29.412 28.7416 28.1C28.7416 26.788 29.8896 25.64 31.2016 25.64ZM50.0616 32.2V46.304L46.7816 43.024L43.5016 46.304V32.2H50.0616ZM33.6616 63.36H32.0216C30.2175 63.36 28.7416 61.884 28.7416 60.08V31.38C29.3976 31.8719 30.2175 32.1999 31.2016 32.1999H33.6616V63.36H33.6616ZM58.2616 32.2V63.36H35.3016V32.2H41.8616V50.24L46.7816 45.32L51.7016 50.24V32.2H58.2616Z" fill="#5CCCEF"/>
</svg>
