<svg width="25" height="21" viewBox="0 0 25 21" fill="none" xmlns="http://www.w3.org/2000/svg">
<path fill-rule="evenodd" clip-rule="evenodd" d="M12.4029 0.0180814C12.4029 0.00942388 12.4099 0.00244066 12.4186 0.00244043C14.0283 0.0023982 15.6381 -0.00412269 17.2478 0.00432944C18.7671 0.0123267 20.1941 0.317791 21.4304 1.13209C23.045 2.1955 23.8712 3.6481 24.025 5.40089C24.0792 6.01777 24.0623 6.64001 24.0632 7.2598C24.0669 9.66338 24.0649 12.067 24.0646 14.4706C24.0645 15.4523 23.9096 16.4108 23.4384 17.3085C22.4826 19.1294 20.8153 20.1249 18.6155 20.4699C18.1568 20.5418 17.6836 20.5687 17.217 20.5699C13.9958 20.5783 10.7745 20.5764 7.55322 20.5734C5.87813 20.5719 4.34611 20.1819 3.04058 19.2238C1.71416 18.2505 1.01423 16.9775 0.796499 15.4849C0.758938 15.2275 0.735941 14.9664 0.735668 14.707C0.732523 11.7217 0.712078 8.73614 0.745263 5.75108C0.763405 4.12016 1.37938 2.67414 2.7565 1.53472C3.8988 0.589678 5.2873 0.0958763 6.83028 0.047551C8.6804 -0.0103964 10.5347 0.0335379 12.3872 0.0337857C12.3958 0.0337869 12.4029 0.0267525 12.4029 0.0180814ZM12.3847 18.6744C13.9386 18.6744 15.4925 18.6799 17.0464 18.6707C17.4528 18.6682 17.865 18.6504 18.2638 18.5868C19.7869 18.3441 20.9449 17.6706 21.5517 16.3631C21.8601 15.6989 21.9607 14.9862 21.9739 14.2959C22.0249 11.618 21.9961 8.9389 21.9925 6.26024C21.9921 5.97004 21.9886 5.67661 21.942 5.39028C21.7332 4.10452 21.1009 3.05067 19.7587 2.4098C19.0096 2.05212 18.1963 1.91707 17.351 1.91683C14.0956 1.91598 10.8403 1.91514 7.58492 1.91857C7.29072 1.9189 6.99393 1.93324 6.70283 1.96931C5.04482 2.17455 3.82357 2.89495 3.21238 4.31223C2.96573 4.88416 2.88692 5.48345 2.88678 6.09191C2.8863 8.89303 2.88325 11.6941 2.89095 14.4952C2.89188 14.8379 2.92088 15.1856 2.99046 15.5223C3.29913 17.0164 4.2441 18.0433 5.92702 18.4562C6.48784 18.5938 7.08733 18.6545 7.67109 18.6649C9.24177 18.6927 10.8134 18.6743 12.3847 18.6744Z" fill="white"/>
<path fill-rule="evenodd" clip-rule="evenodd" d="M18.4148 10.2566C18.4133 13.1858 15.7024 15.5683 12.379 15.5612C9.05438 15.5541 6.37694 13.1882 6.375 10.2559C6.37306 7.32678 9.07991 4.94407 12.4058 4.94727C15.703 4.9504 18.4163 7.34778 18.4148 10.2566ZM12.3972 13.6488C14.517 13.6502 16.2629 12.1122 16.2592 10.2465C16.2555 8.3937 14.5141 6.8555 12.4115 6.84797C10.2948 6.84039 8.54975 8.37378 8.54526 10.2453C8.54079 12.1195 10.2699 13.6473 12.3972 13.6488Z" fill="white"/>
<path fill-rule="evenodd" clip-rule="evenodd" d="M18.6324 6.01739C17.8799 6.01146 17.2867 5.48055 17.2891 4.81515C17.2914 4.14219 17.8995 3.61455 18.6673 3.61917C19.4113 3.62371 20.0176 4.16508 20.0154 4.82286C20.0131 5.48997 19.3955 6.0234 18.6324 6.01739Z" fill="white"/>
</svg>
