<svg width="25" height="16" viewBox="0 0 25 16" fill="none" xmlns="http://www.w3.org/2000/svg">
<path d="M12.5342 15.0781C9.79951 15.0021 7.19894 14.943 4.59837 14.8543C4.03802 14.8332 3.4681 14.7572 2.92212 14.6432C1.89722 14.4321 1.18841 13.8874 0.824425 12.9965C0.53228 12.2787 0.426916 11.5398 0.350288 10.7882C0.182663 9.0233 0.182663 7.25837 0.264081 5.49345C0.311974 4.49698 0.340709 3.49207 0.642433 2.52517C0.824425 1.94671 1.04473 1.38092 1.57634 0.962912C2.13668 0.519569 2.79281 0.253564 3.53994 0.224008C5.58975 0.135339 7.63476 0.0255591 9.68457 0.00866989C12.4432 -0.016664 15.2066 0.0171146 17.9652 0.06356C19.1577 0.0846716 20.3598 0.139562 21.5428 0.274675C22.6252 0.401345 23.4346 0.933356 23.8656 1.86226C24.196 2.57583 24.3206 3.32318 24.3924 4.0832C24.5792 5.98746 24.584 7.89172 24.4786 9.79598C24.4259 10.7629 24.3732 11.734 24.0619 12.6756C23.7075 13.7565 22.9556 14.4701 21.7008 14.715C21.2123 14.8079 20.7047 14.8416 20.2066 14.8585C17.6012 14.9388 15.0007 15.0105 12.5342 15.0781ZM9.88572 10.2773C12.0696 9.28086 14.2296 8.29284 16.4326 7.28371C14.2344 6.27035 12.0744 5.27811 9.88572 4.26898C9.88572 6.28302 9.88572 8.26328 9.88572 10.2773Z" fill="white"/>
</svg>
